<?xml version="1.0" encoding="utf-8"?>
<!-- Generator: Adobe Illustrator 20.0.0, SVG Export Plug-In . SVG Version: 6.00 Build 0)  -->
<svg version="1.1" xmlns="http://www.w3.org/2000/svg" xmlns:xlink="http://www.w3.org/1999/xlink" x="0px" y="0px"
	 viewBox="0 0 100 100" style="enable-background:new 0 0 100 100;" xml:space="preserve">
<style type="text/css">
	.st0{fill:#2B2B2B;}
	.st1{fill:#FFFFFF;}
	.st2{fill:#FCFCFC;}
</style>
<g id="Ebene_1">
	<rect class="st0" width="100" height="100"/>
</g>
<g id="Ebene_2">
	<g>
		<g>
			<path class="st1" d="M30.6,29.6c0-3.4,2.8-6.2,6.2-6.2c3.4,0,6.2,2.8,6.2,6.2c0,3.4-2.8,6.2-6.2,6.2
				C33.4,35.9,30.6,33.1,30.6,29.6L30.6,29.6z"/>
			<path class="st1" d="M47.2,60.7c1.2-0.2,2-1.2,1.9-2.4c0,0,0-0.1,0-0.1l-2.7-16.7c-0.5-2-2.1-3.5-4.2-3.9c-0.1,0-1.8,0-2.5,0
				l-2.7,14.6l-2.4-14.6c-0.9,0-2.7,0-2.8,0c-2.1,0.3-3.7,1.8-4.2,3.9l-2.8,16.7c-0.2,1.2,0.6,2.3,1.8,2.5c0,0,0.1,0,0.1,0
				c0.3,0,0.6,0,0.8-0.1l-1.9,7.8c-0.2,0.8,0.3,1.5,1.1,1.6c0.1,0,0.2,0,0.3,0h5.5l1.1,12.1c0.1,1,1,1.8,2,1.8h2.8
				c1,0,1.9-0.8,2-1.8l1.1-12.1h5.6c0.8,0,1.4-0.6,1.4-1.4c0-0.1,0-0.2,0-0.3l-1.9-7.8C46.6,60.7,46.9,60.7,47.2,60.7z"/>
		</g>
		<g>
			<path class="st1" d="M55.4,23.3c0,3.7,3,6.7,6.7,6.8c3.7,0,6.7-3,6.7-6.7"/>
			<path class="st1" d="M55.5,22.3h13.2c0.5,0,0.9-0.4,0.9-0.9c0-0.5-0.4-0.9-0.9-0.9h-0.3c0-2.5-1-4.4-3-5.4l-1,2.7
				c0,0.2-0.2,0.4-0.5,0.4c0,0-0.1,0-0.1,0c-0.3,0-0.4-0.3-0.4-0.6l0.6-3.4c-0.2-0.4-0.6-0.6-1.1-0.6h-1.8c-0.5,0-0.9,0.2-1.1,0.6
				l0.6,3.4c0,0.3-0.1,0.5-0.4,0.6c0,0-0.1,0-0.1,0c-0.2,0-0.4-0.2-0.5-0.4l-1.1-2.6c-2.1,1-2.9,2.8-2.9,5.3h-0.3
				c-0.5,0-0.9,0.4-0.9,0.9S55,22.3,55.5,22.3z"/>
			<path class="st1" d="M69.7,32c-0.2,0-2.3,0-2.3,0H65l-0.5,4.2c0,0.1-0.2,0.8-0.4,0.8h-3.4c-0.2,0-0.4-0.7-0.4-0.8L59.7,32h-2.5
				h-1.8c-3.1,0-5.7,2.5-5.7,5.6c0,0.2,0,0.4,0,0.6l2,12.5c0.2,1.8,1.4,3.4,3.2,4l2.8,26.5c0.1,1.1,1.1,2.8,2.2,2.8h4.4
				c1.1,0,2.1-1.7,2.2-2.8l2.8-26.1c1.8-0.6,3-2.4,3.3-4.2l2.1-12.6C75,35.2,72.8,32.4,69.7,32z M65.8,47.8l-3,2.5
				c-0.3,0.2-0.6,0.2-0.9,0l-3-2.5c-0.2-0.2-0.3-0.4-0.2-0.6l1.5-9.2c0.1-0.3,0.3,0,0.7,0h3c0.3,0,0.6-0.3,0.7,0l1.5,9.4
				C66.1,47.7,66,47.6,65.8,47.8z"/>
		</g>
	</g>
</g>
</svg>
