<?xml version="1.0" encoding="utf-8"?>
<!-- Generator: Adobe Illustrator 20.0.0, SVG Export Plug-In . SVG Version: 6.00 Build 0)  -->
<svg version="1.1" xmlns="http://www.w3.org/2000/svg" xmlns:xlink="http://www.w3.org/1999/xlink" x="0px" y="0px"
	 viewBox="0 0 100 100" style="enable-background:new 0 0 100 100;" xml:space="preserve">
<style type="text/css">
	.st0{fill:#2B2B2B;}
	.st1{fill:#FFFFFF;}
	.st2{fill:#FCFCFC;}
</style>
<g id="Ebene_1">
	<rect class="st0" width="100" height="100"/>
</g>
<g id="Ebene_2">
	<path class="st1" d="M76.2,28c-8.8-3.4-18.7-1.3-25.4,5.3c-6.8-6.9-17.2-8.9-26-4.9c-0.9,0.4-1.5,1.3-1.5,2.4v39
		c0,1.3,1,2.4,2.3,2.4c0.3,0,0.6,0,0.8-0.1c7-2.6,14.8-1.6,20.9,2.6c1,0.7,2.3,1.1,3.6,1.1c1.2,0,2.4-0.4,3.5-1
		c6-4,13.6-5.1,20.5-2.9c0.2,0.1,0.5,0.1,0.7,0.1c1.3,0,2.3-1.1,2.3-2.4V30.4C77.9,29.3,77.2,28.4,76.2,28z M47.2,40.2v26.5
		c-5.3-2.5-11.3-3.4-17.1-2.6V33.8c5.7-1.5,11.7,0.1,15.9,4.3c0.5,0.6,0.9,1.2,1.2,1.8C47.2,40,47.2,40.1,47.2,40.2z M71.1,63.9
		L71.1,63.9C65.2,63.3,59.3,64.4,54,67V40.2l0,0c0.6-0.7,1.1-1.5,1.6-2c3.2-3.2,7.5-5,12-5c1.1,0,2.3,0.1,3.4,0.4V63.9z"/>
</g>
</svg>
