<?xml version="1.0" encoding="utf-8"?>
<!-- Generator: Adobe Illustrator 20.0.0, SVG Export Plug-In . SVG Version: 6.00 Build 0)  -->
<svg version="1.1" xmlns="http://www.w3.org/2000/svg" xmlns:xlink="http://www.w3.org/1999/xlink" x="0px" y="0px"
	 viewBox="0 0 100 100" style="enable-background:new 0 0 100 100;" xml:space="preserve">
<style type="text/css">
	.st0{fill:#2B2B2B;}
	.st1{fill:#FFFFFF;}
	.st2{fill:#FCFCFC;}
</style>
<g id="Ebene_1">
	<rect class="st0" width="100" height="100"/>
</g>
<g id="Ebene_2">
	<g>
		<path class="st1" d="M60.5,64.1c9.3-2.7,10.8-4.8,10.6-14C63.5,53.4,59.5,55.2,60.5,64.1L60.5,64.1z"/>
		<path class="st1" d="M41.7,77.2c7.1-4.6,7.8-6.7,5.4-14.2C41.6,67.6,38.7,70.1,41.7,77.2L41.7,77.2z"/>
		<path class="st1" d="M39.3,77.7c-8.3-1.3-9.9-2.9-10.7-10.8C35.5,68.9,39.1,70,39.3,77.7L39.3,77.7z"/>
		<path class="st1" d="M34.7,50.5c-6-5.7-6-6.2-3-14C37.6,42.5,37.7,43.1,34.7,50.5L34.7,50.5z"/>
		<path class="st1" d="M35.2,58.5c-0.2-7.7-3.8-8.8-10.7-10.8C25.3,55.7,26.9,57.3,35.2,58.5L35.2,58.5z"/>
		<path class="st1" d="M37.6,58c7.1-4.6,7.8-6.7,5.4-14.2C37.5,48.5,34.6,50.9,37.6,58L37.6,58z"/>
		<path class="st1" d="M37.3,68.2c-8.3-1.3-9.9-2.9-10.7-10.8C33.4,59.5,37.1,60.5,37.3,68.2L37.3,68.2z"/>
		<path class="st1" d="M39.7,67.7c-3-7.1-0.1-9.6,5.4-14.2C47.5,61.1,46.7,63.2,39.7,67.7L39.7,67.7z"/>
		<path class="st1" d="M57.7,63.9c-8.8-4.1-10-6.4-8.4-15.4C56.3,52.9,60,55.3,57.7,63.9L57.7,63.9z"/>
		<path class="st1" d="M61.5,32.3c-4.8-8.3-4.6-8.9,1.2-16.5C67.3,24.3,67.3,25.1,61.5,32.3L61.5,32.3z"/>
		<path class="st1" d="M59.4,41.3c2.3-8.6-1.4-11-8.4-15.4C49.4,34.9,50.6,37.2,59.4,41.3L59.4,41.3z"/>
		<path class="st1" d="M62.2,41.5c9.3-2.7,10.8-4.8,10.6-14C65.2,30.9,61.2,32.7,62.2,41.5L62.2,41.5z"/>
		<path class="st1" d="M58.6,52.7c-8.8-4.1-10-6.4-8.4-15.4C57.2,41.8,60.9,44.1,58.6,52.7L58.6,52.7z"/>
		<path class="st1" d="M61.4,52.9c-1-8.8,3-10.6,10.6-14C72.2,48.1,70.7,50.2,61.4,52.9z"/>
		<path class="st1" d="M53.6,112.1l3.5-46.3c0,0,0.6,0.9,1.7,1c1.2,0.2,2.1-0.7,2.1-0.7l-3.5,46.4L53.6,112.1z"/>
		<path class="st1" d="M48.1,120.5l-8.9-41.4c0,0,0.8,0.7,1.9,0.5c1.2-0.2,1.8-1.2,1.8-1.2l8.9,41.5L48.1,120.5z"/>
	</g>
</g>
</svg>
