<?xml version="1.0" encoding="utf-8"?>
<!-- Generator: Adobe Illustrator 20.0.0, SVG Export Plug-In . SVG Version: 6.00 Build 0)  -->
<svg version="1.1" xmlns="http://www.w3.org/2000/svg" xmlns:xlink="http://www.w3.org/1999/xlink" x="0px" y="0px"
	 viewBox="0 0 100 100" style="enable-background:new 0 0 100 100;" xml:space="preserve">
<style type="text/css">
	.st0{fill:#2B2B2B;}
	.st1{fill:#FFFFFF;}
	.st2{fill:#FCFCFC;}
</style>
<g id="Ebene_1">
	<rect class="st0" width="100" height="100"/>
</g>
<g id="Ebene_2">
	<path class="st1" d="M26.7,67.3l11.6-14.2h-9.3c-0.4,0-0.7-0.3-0.7-0.7c0-0.2,0.1-0.4,0.2-0.5l12.6-12.6h-6.1
		c-0.5,0-0.8-0.4-0.9-0.8c0-0.2,0.1-0.4,0.2-0.6l15.1-17.6c0.7-0.8,2-0.9,2.8-0.2c0.1,0.1,0.2,0.1,0.2,0.2l15.1,17.6
		c0.3,0.4,0.3,0.9-0.1,1.2c-0.2,0.1-0.4,0.2-0.6,0.2h-6l12.6,12.6c0.3,0.3,0.3,0.7,0,1c-0.1,0.1-0.3,0.2-0.5,0.2h-9.3l11.6,14.2
		c0.3,0.4,0.3,1-0.1,1.4c-0.2,0.1-0.4,0.2-0.6,0.2H55v11.8c0,1.1-0.9,2-2,2h-3.9c-1.1,0-2-0.9-2-2V68.9H27.5c-0.5,0-1-0.4-1-1
		C26.5,67.7,26.6,67.4,26.7,67.3z"/>
</g>
</svg>
