<?xml version="1.0" encoding="utf-8"?>
<!-- Generator: Adobe Illustrator 20.0.0, SVG Export Plug-In . SVG Version: 6.00 Build 0)  -->
<svg version="1.1" xmlns="http://www.w3.org/2000/svg" xmlns:xlink="http://www.w3.org/1999/xlink" x="0px" y="0px"
	 viewBox="0 0 100 100" style="enable-background:new 0 0 100 100;" xml:space="preserve">
<style type="text/css">
	.st0{fill:#2B2B2B;}
	.st1{fill:#FFFFFF;}
	.st2{fill:#FCFCFC;}
</style>
<g id="Ebene_1">
	<rect class="st0" width="100" height="100"/>
</g>
<g id="Ebene_2">
	<path class="st1" d="M34.1,37.3l11.3-8.6c3.1-2.4,7.2-2.9,10.8-1.6l18.1,6.9c1.2,0.4,2.4,0.7,3.7,0.7h36.2c0.9,0,1.6,0.7,1.6,1.6
		c0,0,0,0,0,0v22.1c0,0.9-0.7,1.6-1.6,1.6l0,0H77.1c-0.6,0-1.1,0.2-1.5,0.6l-0.9,0.7c-0.2,0.2-0.6,0.1-0.8-0.1L52.8,35.6
		c-0.5-0.6-1.4-0.8-2.2-0.4L41,40.6c-1.9,1.1-4.3,1.2-6.3,0.3c-1.1-0.5-1.6-1.7-1.1-2.8C33.7,37.8,33.9,37.5,34.1,37.3z M-7.3,60h30
		l2.4-2.9c2.1-2.6,6-3,8.5-0.8c1,0.8,1.6,1.8,2,3c2,0.6,3.6,2.1,4.2,4.2c1.5,0.4,2.8,1.4,3.5,2.8c1.3,0.2,2.5,0.8,3.4,1.7
		c1.9,2,2.3,5.1,0.9,7.5l-0.3,0.6c0,0,0,0,0,0.1c1.6,1.1,3.7,0.7,4.8-0.9c0.5-0.8,0.7-1.7,0.6-2.6c0,0,0-0.1,0-0.1c0,0,0.1,0,0.1,0
		l0.3,0.3c1.2,1.2,3.1,1.4,4.5,0.5c1.1-0.8,1.7-2.2,1.4-3.5c0,0,0-0.1,0-0.1c0,0,0.1,0,0.1,0l0.3,0.3c1.2,1.2,3.1,1.4,4.5,0.5
		c1.1-0.8,1.7-2.2,1.4-3.5c0,0,0-0.1,0-0.1c0,0,0.1,0,0.1,0l0.3,0.3c1.1,1.1,2.9,1.4,4.3,0.6c1.6-1,2.2-3.1,1.2-4.8
		c-0.1-0.2-0.2-0.4-0.4-0.5l-2.1-2.6L51.4,38.8c-0.2-0.2-0.5-0.3-0.7-0.1l-8.2,4.6c-2.6,1.5-5.8,1.7-8.6,0.7
		c-1.6-0.5-2.8-1.8-3.4-3.3c-0.5-1.6-0.2-3.3,0.6-4.7c0.2-0.4,0.1-0.9-0.3-1.1c-0.1-0.1-0.2-0.1-0.4-0.1H-7.3
		c-0.9,0-1.6,0.7-1.6,1.6c0,0,0,0,0,0v22.1C-8.9,59.3-8.2,60-7.3,60z M31.2,58.4c-1.3-0.7-2.9-0.4-3.9,0.8L25,62
		c-1,1.3-0.8,3.1,0.4,4.1c0,0,0,0,0,0l0.4,0.3c0.9,0.7,2.2,0.8,3.3,0.2c0.1,0,0.2,0,0.2,0c0,0,0,0.1,0,0.1c-0.2,1.1,0.2,2.2,1.1,2.9
		l0.3,0.2c0.9,0.7,2.1,0.8,3.2,0.3c0.1,0,0.2,0,0.2,0.1c0,0,0,0.1,0,0.1c-0.1,1,0.3,2,1.1,2.7l0.2,0.2c0.9,0.7,2.2,0.8,3.2,0.3
		c0.1,0,0.2,0,0.2,0.1c0,0,0,0,0,0.1c0.1,0.7,0.5,1.4,1.1,1.9l0.1,0.1c1.3,1,3.2,0.8,4.2-0.5c0.1-0.1,0.2-0.2,0.2-0.4l0.4-0.8
		c0.7-1.2,0.5-2.8-0.5-3.8c-0.9-0.8-2.1-1-3.2-0.5c0,0-0.1,0-0.1,0c0,0,0,0,0-0.1c0.1-1.6-1.2-3-2.8-3.1c-0.4,0-0.8,0-1.2,0.2
		c-0.4,0.1-0.3-0.3-0.3-0.3c0.6-1.5-0.1-3.2-1.6-3.8c-0.8-0.3-1.8-0.3-2.5,0.1c-0.3,0-0.3-0.3-0.3-0.3C33.1,61,32.6,59.2,31.2,58.4z
		"/>
</g>
</svg>
