<?xml version="1.0" encoding="utf-8"?>
<!-- Generator: Adobe Illustrator 20.0.0, SVG Export Plug-In . SVG Version: 6.00 Build 0)  -->
<svg version="1.1" id="svg22617" xmlns:svg="http://www.w3.org/2000/svg"
	 xmlns="http://www.w3.org/2000/svg" xmlns:xlink="http://www.w3.org/1999/xlink" x="0px" y="0px" viewBox="0 0 60 18"
	 style="enable-background:new 0 0 60 18;" xml:space="preserve">
<style type="text/css">
	.st0{fill:#ED1C24;}
</style>
<g id="layer1" transform="translate(491.42856,-289.50504)">
	<path class="st0" d="M-461,290.3h-9.4l-2.5,16.4h10c6.3,0,9-3.3,9.5-8.3C-452.9,293.4-455.8,290.3-461,290.3z M-459.1,298.5
		c-0.4,2.4-1.4,4.7-4.9,4.7h-3l1.4-9.3h2.7c1.3,0,2.1,0.2,2.6,0.7C-459.2,295.3-458.8,296.8-459.1,298.5z"/>
	<path id="path10203" class="st0" d="M-444.7,290.3l-1.4,9.2c-0.3,2.1,0.8,3.6,3,3.6c1.9,0,3.4-1.3,3.8-3.6l1.4-9.2h5.5l-1.3,8.7
		c-0.7,4.8-3.4,8.1-9.8,8.1c-4.3,0-6.6-1.5-7.7-3.5c-0.8-1.5-0.8-3.3-0.6-4.7l1.3-8.4H-444.7"/>
	<path id="path10205" class="st0" d="M-474.5,302.3c-0.8,0.3-2.7,0.5-4.6,0.5c-4.2,0-5.7-2-5.6-4.4c0.2-2.6,2.4-4.5,6.8-4.5
		c1.8,0,3.7,0.5,4.1,0.6l0.6-3.9c-0.8-0.2-3.1-0.7-6.3-0.7c-7.8,0-10.5,4.3-11,7.5c-0.7,4.5,2.1,9.5,9.7,9.5c2.4,0,4.9-0.4,5.7-0.7
		L-474.5,302.3"/>
</g>
</svg>
