<?xml version="1.0" encoding="utf-8"?>
<!-- Generator: Adobe Illustrator 20.0.0, SVG Export Plug-In . SVG Version: 6.00 Build 0)  -->
<svg version="1.1" id="svg4677" xmlns:svg="http://www.w3.org/2000/svg"
	 xmlns="http://www.w3.org/2000/svg" xmlns:xlink="http://www.w3.org/1999/xlink" x="0px" y="0px" viewBox="0 0 76 18"
	 style="enable-background:new 0 0 76 18;" xml:space="preserve">
<style type="text/css">
	.st0{fill:#0C87D1;}
	.st1{fill:#7FB8E6;}
</style>
<g>
	<path id="path12458" class="st0" d="M69.4,0.5l5.4,8.5l-5.4,8.5L64,9L69.4,0.5"/>
	<path id="path12462" class="st1" d="M54,10.2c0.4,0.4,0.8,0.5,1.3,0.4c0.4-0.1,0.8,0.3,0.8,0.7c0,0.3-0.3,0.7-0.8,0.7
		c-0.7,0.1-1,0.2-1.2,0.3c-0.3,0.2-0.7,0.7-0.8,1.1c0,0,0.2,0,0.3,0.1c-0.1,0.3-0.1,0.8,0,1c0.1-0.1,0.2-0.2,0.4-0.3
		c-0.1,0.1-0.1,0.6-0.1,0.8c0.1-0.1,0.3-0.2,0.5-0.3c-0.1,0.3-0.2,0.7-0.2,0.7c0.2,0,0.3,0,0.5,0c-0.3,0.1-0.4,0.3-0.5,0.5
		c-0.2,0.1-0.3,0.3-0.3,0.6c0,0.3,0.2,0.5,0.5,0.6c0-0.1,0-0.3,0-0.4c0-0.1,0.1-0.1,0.2-0.1c0.1,0,0.4,0,0.6-0.1
		c0.4,0.2,0.6,0.6,0.6,1c0,0,0,0,0,0c0.3-0.2,0.5-0.5,0.5-0.9c0.5,0.1,0.5,0.6,0.4,0.9c0.3-0.2,0.5-0.5,0.5-0.8c0-0.2,0-0.3-0.1-0.5
		c0.2,0.1,0.4,0.3,0.5,0.6c0-0.1,0.1-0.2,0.1-0.4c0-0.5-0.4-0.9-0.9-1c-0.1-0.1-0.3-0.1-0.5-0.1c-0.2,0-0.3,0-0.4,0.1l-0.4-1.5
		c0.1,0.1,0.5,0.3,0.5,0.3c0-0.2,0.1-0.5,0.2-0.7c0.5,0.3,1.1,0.4,1.1,0.4c0-0.1,0-0.3,0-0.4c0.5,0.3,1.1,0.3,1.1,0.3
		c-0.1-0.5-0.1-0.9,0-1.2c0.1-0.4,0.1-0.6,0.1-0.6c0,0,0.2,0,0.4,0.1c0.2,0.1,0.1,0.5,0.1,0.6c-0.1,0.7,0,2.1,0,2.1
		c0.2-0.1,0.4-0.1,0.6-0.2c0,0.2,0,0.6,0.1,0.6c0.1-0.1,0.3-0.1,0.4-0.2c0,0.1,0,0.2,0,0.3c0,0,0,0,0,0c-0.1,0.1-0.2,0.2-0.2,0.3
		c-0.2,0.1-0.3,0.3-0.3,0.6c0,0.3,0.2,0.5,0.5,0.6c0-0.1,0-0.3,0-0.4c0-0.1,0.1-0.1,0.2-0.1c0.1,0,0.4,0,0.6-0.1
		c0.4,0.2,0.6,0.6,0.6,1c0,0,0,0,0,0.1c0.3-0.2,0.5-0.5,0.5-0.9c0.3,0.1,0.4,0.3,0.4,0.6c0,0.1,0,0.2-0.1,0.3
		c0.3-0.2,0.5-0.5,0.5-0.8c0-0.2,0-0.3-0.1-0.5c0.2,0.1,0.4,0.3,0.5,0.6c0-0.1,0.1-0.2,0.1-0.4c0-0.5-0.4-0.9-0.9-1
		c-0.1-0.1-0.3-0.1-0.5-0.1c-0.1,0-0.3,0-0.4,0.1c0,0-0.5-0.6-0.9-1.2c0.2-0.1,0.5-0.3,0.5-0.3c-0.2-0.1-0.3-0.2-0.4-0.4
		c0.3,0,0.8-0.2,0.8-0.2c-0.2-0.2-0.4-0.5-0.4-0.7c0.2-0.1,0.4-0.1,0.6-0.1c0-0.2-0.6-1.2-1.2-1.6c-0.9-0.7-1.7-1.1-1.7-1.1l0.1-0.6
		C58.8,8.9,59,9,59.2,9.1c0,0,0,0,0,0c0-0.2,0-0.4,0.1-0.5l0.4,0.2c0,0.1,0,0.2,0,0.2c0,0.1,0.1,0.1,0.1,0.2c0,0,0,0,0,0.1
		c0,0.3,0.2,0.5,0.5,0.5c0.1,0,0.2,0,0.2-0.1c-0.2-0.1-0.3-0.2-0.3-0.4c0,0,0.1,0,0.1,0c0,0,0,0,0.1,0c0.1,0.1,0.2,0.2,0.4,0.2
		c0,0,0,0,0,0c0.1,0,0.3,0.1,0.3,0.2c0.1,0.1,0,0.3-0.1,0.4c0,0,0.1,0,0.1,0c0.3-0.1,0.4-0.5,0.3-0.8c0-0.1-0.1-0.2-0.2-0.2
		c0-0.1,0-0.1,0-0.1c0,0,0,0,0.1,0c0.2-0.1,0.5,0,0.6,0.2c0,0.1,0,0.1,0,0.2c0.1-0.2,0.2-0.4,0.1-0.6c-0.1-0.2-0.3-0.4-0.6-0.4
		c0,0,0-0.1,0-0.1c0,0,0,0,0.1,0c0.2-0.1,0.5,0,0.6,0.2c0-0.1,0-0.1-0.1-0.2c-0.2-0.3-0.5-0.5-0.9-0.4c-0.2-0.1-0.4-0.1-0.5,0
		c-0.1,0.1-0.2,0.1-0.3,0.3l-0.4-0.2c0.1-0.1,0.4-0.3,0.5-0.3c-0.1-0.1-0.2-0.1-0.2-0.2c0.2-0.1,0.6-0.3,0.6-0.3
		c-0.1-0.1-0.2-0.2-0.3-0.3C60.8,6.5,61.2,6,61.2,6c-0.2-0.1-0.4-0.2-0.6-0.3l0.3-0.3c0.1,0,0.1,0,0.2,0c0.1,0,0.2,0,0.2-0.1
		c0,0,0,0,0.1,0c0.3,0.1,0.6,0,0.7-0.3c0-0.1,0-0.2,0-0.2c-0.1,0.2-0.3,0.2-0.5,0.2c0,0,0-0.1,0-0.1c0,0,0-0.1,0-0.1
		c0.1,0,0.3-0.1,0.3-0.3c0,0,0,0,0,0c0.1-0.1,0.2-0.2,0.3-0.2c0.1,0,0.3,0.1,0.3,0.2c0,0,0-0.1,0-0.1c0-0.3-0.3-0.6-0.6-0.6
		c-0.1,0-0.2,0-0.3,0.1c0,0-0.1,0-0.1,0c0,0,0-0.1,0-0.1c0-0.3,0.2-0.5,0.4-0.5c0.1,0,0.1,0,0.2,0c-0.1-0.2-0.3-0.3-0.6-0.3
		c-0.3,0-0.5,0.2-0.5,0.4c0,0-0.1,0-0.1-0.1c0,0,0,0,0-0.1c0-0.2,0.1-0.4,0.4-0.5c-0.1,0-0.1,0-0.2,0c-0.4,0-0.7,0.3-0.7,0.7
		c-0.1,0.1-0.2,0.3-0.2,0.5c0,0.1,0.1,0.3,0.1,0.3c0,0-0.6,0.5-0.6,0.5c0.1-0.2,0.1-0.5,0.1-0.5c-1,0.2-1.8-0.2-1.8-0.2
		c0.1,0,0.7-0.3,0.8-0.3c0-0.1,0-0.1,0-0.2c0.3-0.1,0.5,0,0.9-0.1c0.3-0.1,0.5-0.5,0.4-1C60,2.2,59.7,2,59.5,1.9
		c-0.2,0-0.4,0.1-0.4,0.1c0.2,0,0.4,0.2,0.4,0.6c0,0.3-0.4,0.5-0.5,0.5c0-0.1,0-0.6,0-0.7c-0.3-0.1-0.7-0.4-0.9-0.6
		c-0.1-0.7-0.7-1.2-0.8-1.3c0,0.1-0.1,0.4-0.1,0.4c-0.4-0.4-1.1-0.4-1.4-0.4c0.2,0.2,0.3,0.5,0.4,0.7c-0.7-0.3-1.4-0.1-1.6-0.1
		c0.2,0.2,0.4,0.4,0.6,0.6c-0.7,0-1.3,0.5-1.4,0.6c0.3,0.1,0.6,0.2,0.9,0.4c-0.5,0.3-0.9,1-0.9,1c0.2,0,0.7,0.2,0.9,0.3
		c-0.3,0-0.5,0-0.8,0c0.1,0.2,0.6,0.9,1,1.1c-0.3,0-0.5,0-0.8-0.1c0.1,0.2,0.4,0.9,1,1.2c-0.2,0-0.4,0-0.6,0c0.1,0.2,0.6,0.8,1.2,1
		c-0.2,0.1-0.4,0.1-0.6,0.1c0.2,0.2,0.7,0.6,1.1,0.7c-0.2,0.1-0.3,0.3-0.5,0.3c0.2,0.1,0.7,0.2,0.7,0.2l0,0.3
		c-0.3,0.1-0.5,0.3-0.7,0.6c-0.2,0.2-0.6,0.4-0.9,0.3c-0.3-0.1-0.3-0.3-0.3-0.5c0-0.2,0.2-0.6,0.3-0.9c0.2-0.5,0.1-1-0.1-1.3
		c-0.3-0.4-0.6-0.5-1-0.5c-0.5,0-0.9-0.5-0.7-1c0.1-0.3,0.1-0.6-0.1-1c-0.1-0.2-0.3-0.6-0.8-0.6c-0.4,0-0.8,0.4-0.8,0.7
		c0,0.3,0.3,0.6,0.6,0.7C52.1,5.4,52,5.3,52,5.2c0-0.1,0-0.4,0.3-0.4c0.2,0,0.3,0.3,0.2,0.7c-0.2,0.5,0,0.9,0.1,1.1
		c0,0,0.1,0.2,0.4,0.4c-0.1,0.1-0.3,0.4-0.1,0.8c0.2,0.4,0,0.7-0.2,0.7c-0.2,0-0.2-0.2-0.3-0.4c0-0.1,0-0.2,0.1-0.3
		c-0.3,0-0.6,0.3-0.6,0.7c0,0.4,0.4,0.7,0.8,0.7c0.4,0,0.6-0.2,0.8-0.6c0.2-0.4,0.1-0.7,0-1c-0.1-0.3,0.1-0.4,0.4-0.4
		c0.3,0.1,0.4,0.4,0.3,0.7c-0.1,0.2-0.3,0.6-0.3,0.8C53.7,9.3,53.7,9.9,54,10.2"/>
	<path id="path12466" class="st0" d="M14.7,14.6c-0.2,0.6-0.6,2-0.6,2c-1,0.4-2.5,0.7-4.7,0.7c-5.9,0-8.7-3.4-8.7-7.4
		c0-4.6,3.3-9.4,10.8-9.4c1,0,2.1,0.1,3.1,0.3c0.8,0.2,1.8,0.5,2.5,1l-1,3.8c-0.5-0.4-1.8-1.3-4-1.3c-4.1,0-5.6,3.5-5.6,5.5
		c0,2.4,1.7,3.9,4.2,3.9c2,0,3.4-0.7,4.3-1.2C15.2,12.4,14.8,13.9,14.7,14.6 M16.6,12.5c0.4,0.3,0.6,0.4,1.2,0.7
		c1.3,0.6,3.2,0.7,4,0.7c2.3,0,2.8-1,2.8-1.6c0-0.8-1.2-1.3-2.5-1.9L21.2,10c-1.5-0.7-3.6-1.9-3.6-4c0-1.9,1.1-3.1,1.6-3.5
		c1.8-1.5,4.3-1.9,6.4-1.9c2.4,0,5.2,1,6.3,1.4l-1,3.6c-0.3-0.3-0.7-0.5-1.1-0.7c-1.1-0.6-2.8-1.1-3.6-1.1c-1.4,0-2.3,0.6-2.3,1.4
		c0,0.7,0.6,1.2,2.5,2L27,7.5C28.3,8,31,9.3,31,11.7c0,3.2-3.3,5.7-8.9,5.7c-2.3,0-6-0.5-6.6-0.8L16.6,12.5 M50.7,1.1l-0.6,2.9
		l-1,4.2c-1,4.7-1.7,6.6-3.6,7.8c-1.6,1.1-3.8,1.4-5.8,1.4c-2.1,0-3.9-0.3-5-0.9c-2.4-1.3-2.6-3.3-2.7-3.9c-0.1-1.3,0.3-2.9,0.5-4.2
		l1-4.5l0.7-2.9h5.4L39,4.9l-0.8,3.6c-0.5,2.1-0.6,3-0.6,3.8c0.1,1.3,1.3,1.6,2.2,1.7c0.9,0.1,2.3,0,2.8-1.3
		c0.2-0.5,0.3-1.1,0.7-2.4c0.7-2.6,1.5-6.2,1.5-6.2l0.7-3.1L50.7,1.1"/>
</g>
</svg>
