<?xml version="1.0" encoding="utf-8"?>
<!-- Generator: Adobe Illustrator 20.0.0, SVG Export Plug-In . SVG Version: 6.00 Build 0)  -->
<svg version="1.1" id="svg17243" xmlns:svg="http://www.w3.org/2000/svg"
	 xmlns="http://www.w3.org/2000/svg" xmlns:xlink="http://www.w3.org/1999/xlink" x="0px" y="0px" viewBox="0 0 60 28"
	 style="enable-background:new 0 0 60 28;" xml:space="preserve">
<style type="text/css">
	.st0{fill:#FFED00;}
	.st1{fill:#0BA1E2;}
	.st2{fill:#E5007D;}
	.st3{fill:#FFFFFF;}
</style>
<path id="path22" class="st0" d="M0,28h60V0H0V28z"/>
<path id="path54" class="st1" d="M16.9,1.9v1.3h1.3V1.9L16.9,1.9 M16.9,8h-0.5v1h2.4V8h-0.6V4h-2v1h0.6V8 M7.7,8H7.2v1h2.5V8H9.1
	V6.4c0-0.8,0.5-1.3,1.2-1.3c0.1,0,0.3,0,0.4,0L10.8,4c-0.1,0-0.3-0.1-0.4-0.1C9.6,3.9,9.1,4.3,9,5.1h0C9,4.7,9,4.4,9,4H7.1v1h0.6
	L7.7,8 M2.1,2.3v1h0.7V8H2.2v1h2.7V8H4.2V6.2h2v-1h-2V3.3h1.6l0,0.4h1.1l0-1.4L2.1,2.3 M52.8,16.2h-0.5v1h2.4v-1h-0.6v-1.6
	c0-0.7,0.3-1.3,1.1-1.3c0.5,0,0.9,0.2,0.9,0.9v2h-0.5v1H58v-1h-0.6V14c0-1.2-0.5-1.9-1.7-1.9c-0.9,0-1.5,0.5-1.7,1.1h0
	c0.1-0.4,0.1-0.7,0.1-1h-1.9v1h0.6L52.8,16.2 M44,12.2h-0.7v1H44v2.8c0,0.9,0.5,1.3,1.5,1.3c0.3,0,0.7-0.1,1.1-0.2l0-0.9
	c-0.2,0.1-0.4,0.2-0.6,0.2c-0.5,0-0.7-0.2-0.7-0.9v-2.2h1.1v-1h-1.1v-1.1L44,11.2V12.2 M41.5,15.1c0,0.9-0.5,1.2-1,1.2
	c-0.5,0-0.7-0.3-0.7-0.6c0-0.4,0.3-0.6,1.3-0.6H41.5L41.5,15.1z M43.3,16.2h-0.6c0-0.7,0-1.4,0-2.2c0-1.4-0.8-1.9-2.1-1.9
	c-0.9,0-1.6,0.3-2,0.5v1.3h1.1v-0.7c0.2-0.1,0.6-0.1,0.8-0.1c0.6,0,0.9,0.2,0.9,0.9v0.2c-1,0-1.6,0-2.1,0.2c-0.5,0.2-1,0.6-1,1.4
	c0,0.8,0.5,1.4,1.6,1.4c0.8,0,1.2-0.3,1.5-1.1h0c0,0.2-0.1,0.4-0.1,0.7v0.3h1.7V16.2 M35.1,16.2h-0.5v1h2.5v-1h-0.6v-1.6
	c0-0.8,0.5-1.3,1.2-1.3c0.1,0,0.3,0,0.4,0l0.1-1.2c-0.1,0-0.3-0.1-0.4-0.1c-0.8,0-1.2,0.4-1.4,1.2h0c0.1-0.5,0.1-0.8,0.1-1.1h-1.9v1
	h0.6L35.1,16.2 M28.5,17.1h2.3v-1h-0.5v-1.5l1.1,1.2c0.1,0.2,0.3,0.3,0.4,0.3v0h-0.5v1H34v-1h-0.5l-1.6-1.8l1.5-1.2h0.4v-1h-2.5v1
	h0.7v0c-0.1,0-0.1,0.1-0.2,0.1l-1.3,1V9.9h-2.1v1h0.8v5.3h-0.5L28.5,17.1 M26.7,14.8c0,0.9-0.3,1.4-1.1,1.4c-0.8,0-1.1-0.5-1.1-1.4
	c0-0.9,0.3-1.6,1.1-1.6C26.4,13.2,26.7,13.7,26.7,14.8 M28.2,14.7c0-1.7-0.9-2.6-2.5-2.6c-1.6,0-2.5,1.2-2.5,2.6
	c0,1.7,1,2.5,2.5,2.5C27.2,17.3,28.2,16.2,28.2,14.7 M20.4,17.1h2.4v-1h-0.6V14c0-1.2-0.5-1.9-1.7-1.9c-0.9,0-1.4,0.4-1.6,1.1h0
	c-0.1-0.7-0.6-1.1-1.5-1.1c-0.8,0-1.4,0.4-1.7,1.1h0c0.1-0.3,0.1-0.7,0.1-1h-1.9v1h0.6v3h-0.5v1h2.4v-1h-0.6v-1.6
	c0-0.7,0.3-1.3,1-1.3c0.5,0,0.9,0.2,0.9,0.9v2h-0.5v1h2.4v-1H19v-1.6c0-0.8,0.4-1.3,1-1.3c0.5,0,0.9,0.2,0.9,0.9v2h-0.5V17.1
	 M6.7,13.8c0,1.8-0.6,2.4-1.7,2.4H4.2v-4.7H5C6.1,11.5,6.7,12.1,6.7,13.8 M8.2,13.7c0-2.1-1.1-3.2-3-3.2H2.1v1h0.7v4.7H2.1v1h3.2
	C7.1,17.1,8.2,15.8,8.2,13.7 M20.7,5.8c0-0.2,0-0.5,0.3-0.7c0.2-0.2,0.4-0.3,0.7-0.3c0.8,0,0.9,0.8,0.9,1H20.7z M22.6,7.5
	c-0.1,0.3-0.3,0.7-0.9,0.7c-0.3,0-0.6-0.1-0.8-0.5c-0.2-0.3-0.2-0.8-0.2-1H24c0-0.4,0-1.4-0.6-2.1c-0.4-0.5-1.1-0.7-1.7-0.7
	c-0.5,0-1.1,0.1-1.7,0.6c-0.3,0.3-0.7,0.9-0.7,1.9c0,1.7,0.8,2.6,2.4,2.6c0.3,0,1.3,0,1.9-0.8c0.2-0.3,0.4-0.6,0.4-0.8L22.6,7.5
	 M48.4,14.1c0-0.2,0-0.5,0.3-0.7c0.2-0.2,0.4-0.3,0.7-0.3c0.8,0,0.9,0.8,0.9,1L48.4,14.1L48.4,14.1z M50.3,15.7
	c-0.1,0.3-0.3,0.7-0.9,0.7c-0.3,0-0.6-0.1-0.8-0.5c-0.2-0.3-0.2-0.8-0.2-1h3.3c0-0.4,0-1.4-0.6-2.1c-0.4-0.5-1.1-0.7-1.7-0.7
	c-0.5,0-1.1,0.1-1.7,0.6c-0.3,0.3-0.7,0.9-0.7,1.9c0,1.7,0.8,2.6,2.4,2.6c0.3,0,1.3,0,1.9-0.8c0.2-0.3,0.4-0.6,0.4-0.8L50.3,15.7
	 M10.2,14.1c0-0.2,0-0.5,0.3-0.7c0.2-0.2,0.4-0.3,0.7-0.3c0.8,0,0.9,0.8,0.9,1L10.2,14.1L10.2,14.1z M12.1,15.7
	c-0.1,0.3-0.3,0.7-0.9,0.7c-0.3,0-0.6-0.1-0.8-0.5c-0.2-0.3-0.2-0.8-0.2-1h3.3c0-0.4,0-1.4-0.6-2.1c-0.4-0.5-1.1-0.7-1.7-0.7
	c-0.5,0-1.1,0.1-1.7,0.6c-0.3,0.3-0.7,0.9-0.7,1.9c0,1.7,0.8,2.6,2.4,2.6c0.3,0,1.3,0,1.9-0.8c0.2-0.3,0.4-0.6,0.4-0.8L12.1,15.7
	 M12.5,5.8c0-0.2,0-0.5,0.3-0.7c0.2-0.2,0.4-0.3,0.7-0.3c0.8,0,0.9,0.8,0.9,1H12.5z M14.4,7.5c-0.1,0.3-0.3,0.7-0.9,0.7
	c-0.3,0-0.6-0.1-0.8-0.5c-0.2-0.3-0.2-0.8-0.2-1h3.3c0-0.4,0-1.4-0.6-2.1c-0.4-0.5-1.1-0.7-1.7-0.7c-0.5,0-1.1,0.1-1.7,0.6
	c-0.3,0.3-0.7,0.9-0.7,1.9c0,1.7,0.8,2.6,2.4,2.6c0.3,0,1.3,0,1.9-0.8c0.2-0.3,0.4-0.6,0.4-0.8L14.4,7.5"/>
<path id="path56" class="st2" d="M24,26.2h34v-7.4H24L24,26.2L24,26.2z"/>
<path id="path62" class="st3" d="M46,21.3h0.7l0-0.9h-3.1V21h0.5v3.1h-0.4v0.6h1.8v-0.6H45v-1.2h1.3v-0.7H45V21h1L46,21.3
	 M50.7,22.5c0,1.2-0.4,1.6-1.1,1.6H49V21h0.5C50.2,21,50.7,21.4,50.7,22.5 M51.6,22.4c0-1.4-0.7-2.1-2-2.1h-2V21h0.5v3.1h-0.5v0.6
	h2.1C50.9,24.7,51.6,23.8,51.6,22.4 M54.2,22.4c0.5,0,0.7-0.3,0.7-0.7c0-0.4-0.3-0.7-0.7-0.7h-0.5v1.4L54.2,22.4L54.2,22.4z
	 M52.8,21h-0.4v-0.6h1.8c1,0,1.6,0.4,1.6,1.3c0,0.8-0.6,1.4-1.4,1.4h-0.6v1h0.4v0.6h-1.8v-0.6h0.4V21"/>
</svg>
