<?xml version="1.0" encoding="utf-8"?>
<!-- Generator: Adobe Illustrator 20.0.0, SVG Export Plug-In . SVG Version: 6.00 Build 0)  -->
<svg version="1.1"
	 id="Ebene_1" xmlns:cc="http://creativecommons.org/ns#" xmlns:dc="http://purl.org/dc/elements/1.1/" xmlns:rdf="http://www.w3.org/1999/02/22-rdf-syntax-ns#"
	 xmlns="http://www.w3.org/2000/svg" xmlns:xlink="http://www.w3.org/1999/xlink" x="0px" y="0px" viewBox="0 0 50 30"
	 style="enable-background:new 0 0 50 30;" xml:space="preserve">
<style type="text/css">
	.st0{fill:#1FA12D;}
	.st1{fill:#0066AC;}
	.st2{fill:#FFE400;}
	.st3{fill:#FFFFFF;}
</style>
<path class="st0" d="M0,30h50V0H0V30z"/>
<path class="st1" d="M3.7,26.6H30l0.3-1.5H4L3.7,26.6"/>
<path class="st2" d="M46.5,13.4c0-0.1-0.2-0.1-0.2-0.2c-0.3-0.3-1.5-1.4-3.8-1.4c-0.3,0-0.6,0-0.8,0.1c0.5-0.2,0.7-0.3,0.9-0.3
	c0.2-0.1,1.4-0.5,2-2.5c0.1-0.2,0.2-0.6,0.2-0.6c0,0-0.4,0-0.8,0.3C43.5,9,42.1,9.2,42,9.2c-0.1,0-0.5,0-1.1,0.3
	c0.7-0.7,1.4-1.7,1.6-3c0.1-0.7,0.1-0.9,0-0.9c0,0-0.1,0-0.1,0c-0.1,0-0.3,0.2-0.8,0.5c-0.5,0.3-1,0.7-1,0.7s0.2-1.8,0.1-1.8
	c-0.1,0-1.1,0-2.6,1.7c0,0,0.2-1.5-0.1-2c0,0-0.1-0.4-0.1-0.6c0-0.1-0.1-0.2-0.1-0.2c0,0-0.2,0-0.4,0.3C37,4.4,35.4,4.9,35.1,7
	c-0.2-0.8-0.6-1.9-1.7-2.5c-0.6-0.6-0.9-0.8-0.9-0.7c0,0,0,0.3-0.1,0.8c-0.1,0.7-0.2,0.9-0.2,0.9s-1.1-1-1.1-1
	c-0.1-0.1-0.7,2.1-0.5,3.1c0,0-0.3-0.3-1-0.6c-0.7-0.4-1.9-0.4-1.9-0.4c0,0.1,1,2.1,1.4,2.7c0,0-2.7-0.5-2.7-0.3
	c0,0.1,0.1,0.2,0.2,0.6c0,0-1.1,0-1,0.1c0,0.1,0.8,1.4,0.9,1.5c0,0-0.8,0.2-1,0.2c-0.1,0,0.6,1.8,2.4,2.3c0.3,0.1,0.5,0.1,0.7,0.1
	c0.2,0,0.5,0,0.7,0.1c1.1,0,1.8-0.2,1.7-0.6c0,0,0-0.1-1.1-0.6c0,0,0-0.1,0.1-0.2c0.1,0,1.2,0.4,1.2,0.3c-0.1-0.1-0.5-0.5-0.4-0.5
	c0.1,0,0.6,0.2,0.8,0.1c0.2-0.2,0.3-0.5,0.4-0.5c0.1-0.1-0.3-0.5,0.2-0.3c0,0,0.4-0.2,0.1-0.6c-0.3-0.3-1.2-1.4,0.3-0.1
	c0.4,0.3,1.3-0.7,1.2-1.2c0,0,0.4,0.4,0.4,0.4c0.1,0,0.6,0.1,0.7-0.1c0.1-0.1-0.2-0.8,0-1.2c0,0,0.1,0,0.1,0.1
	c0.1,0.1,0.1,0.9,0.3,1c0,0,0.3-0.2,0.4-0.3c0.1-0.1-0.1,0.8,0.8,0.4c0,0,0.5-0.4,0.6-0.4c0.1,0-0.1,0.5,0,0.7
	c0.1,0.2,0.5,0.3,0.6,0.1c0.1-0.2,0.7-0.7,0.7-0.6c0,0-0.3,0.9-0.3,1C38,10.9,38,11.1,38,11.1s0,0.3,0.4,0.3c0,0,0.6-0.3,1.2-0.8
	c-0.1,0.1-0.1,0.2-0.2,0.2c0,0-0.8,0.8-0.8,0.9c0,0.1,0.3,0.4,0.5,0.2c0.2-0.2,0.8-0.4,0.8-0.3c0,0,0.1,0.2,0,0.2
	c-0.1,0.1-0.7,0.4-0.7,0.4s0.7,0,1.6-0.1c-1,0.4-1.3,1-1.3,1c0,0.2,1.5-0.2,1.6-0.1c0.2,0.5-0.5,0.2-0.8,0.2c-0.3,0-1.1,0.1-0.4,0.7
	c0,0,0.1,0-0.2,0.2c-0.4,0.2,0.8,0.3,0.9,0.5c0.1,0.2-1.1,0-1.1,0.4c0,0.4-0.2,0.1,0.6,1c0,0-0.5-0.1-0.6,0c-0.1,0.1,1.1,1,1.1,1.3
	c0,0-0.2,0.2-0.3,0c-0.1-0.1-0.8-0.9-0.9-0.9c-0.1,0-0.2,0-0.3,0.2c0,0,0.3,0.7,0.2,0.7c-0.1,0-0.6-0.3-0.6-0.3s-0.3,0.1-0.2,0.4
	c0.1,0.3,1,1.2,0.9,1.3c0,0-0.1,0.2-0.2,0.1c-0.1,0-0.7-1.1-0.8-1.1c-0.1,0,0.2,1,0.2,1s-0.5-0.6-0.7-0.7c-0.1-0.1-0.2,0.1-0.2,0.1
	l0.2,1.2c0,0-1.7-2.5-1.3,0.5c0,0,0,0.2-0.1,0.2c-0.1,0-0.4-1-0.4-1.2c0-0.3-0.3,0.7-0.3,0.7s-0.5-2.1-1.6,0.1c0,0-0.1-0.8-0.2-0.9
	c-0.2-0.1-0.3-0.2-0.3-0.2c0,0-0.3,0-0.4,0.4c-0.8,1-1.2,2.2-1.4,3.3c0,0.8,0.1,2.1,0,2.4c0,0.2,0,0.2,0,0.2c0,0,0.3-0.2,0.4-0.3
	c0.1-0.1,1.5-1.9,1.6-2.4c0,0,0.7,3.2,1,3.6c0.1,0.1,0.1,0.2,0.1,0.1c0.1-0.1,0.2-0.4,0.3-0.4c0.1,0,0.4-0.1,0.6-0.5
	c0.2-0.5,0.5-0.9,0.6-2.1c0,0,1.6,2,1.8,2.2c0.1,0.1,0.5-0.6,0.7-1.8c0.2-1.1-0.2-2.7-0.5-2.7c0,0-0.1-0.2,0.2-0.1
	c0.2,0.1,0.8,1.2,2.3,2.1c0.3,0.1,0.8,0.1,0.8,0.1c0.1-0.3-1.1-3.4-1.1-3.4s0,0,0.3,0.1c0.2,0.1,2.5,1.6,3.9,0.9
	c0.3-0.1,0.3-0.2,0.3-0.2c0.2-0.7-1-1.9-1.8-2.5c0,0,1.9-0.1,2.2-0.6c0,0,0.4-0.1,0.5-0.4c0,0-0.2-0.5-0.5-0.7
	c-0.7-0.5-0.9-0.7-0.9-0.7s0.2-0.2,0.5-0.3c0.3-0.1,1.3-0.7,1-1C46.3,13.7,46.6,13.5,46.5,13.4"/>
<path class="st3" d="M11,14c-0.1-0.1-0.2-0.1-0.3-0.1c-0.1,0-0.2,0-0.3,0.1c-0.1,0.1-0.1,0.2-0.2,0.3c0,0.1,0,0.2,0.1,0.3
	c0.1,0.1,0.2,0.1,0.3,0.1c0.1,0,0.2,0,0.3-0.1c0.1-0.1,0.1-0.2,0.2-0.3C11.1,14.2,11.1,14.1,11,14 M9.9,14c-0.1-0.1-0.2-0.1-0.3-0.1
	c-0.1,0-0.2,0-0.3,0.1c-0.1,0.1-0.1,0.2-0.2,0.3c0,0.1,0,0.2,0.1,0.3c0.1,0.1,0.2,0.1,0.3,0.1c0.1,0,0.2,0,0.3-0.1
	c0.1-0.1,0.1-0.2,0.2-0.3C10,14.2,10,14.1,9.9,14 M9.9,17.4c0,0.2-0.1,0.3-0.1,0.3c0,0.1-0.1,0.1-0.2,0.1c-0.1,0-0.2,0-0.2-0.1
	c0-0.1,0-0.2,0-0.3L9.8,15H8.7l-0.4,2.5c-0.1,0.5,0,0.8,0.3,1c0.2,0.2,0.5,0.3,0.9,0.3c0.3,0,0.6-0.1,0.8-0.2
	c0.2-0.1,0.3-0.2,0.4-0.4c0.1-0.1,0.2-0.3,0.2-0.5l0.4-2.6h-1.1L9.9,17.4 M22,19.1c-0.1-0.1-0.2-0.1-0.3-0.1c-0.1,0-0.2,0-0.3,0.1
	c-0.1,0.1-0.1,0.2-0.2,0.3c0,0.1,0,0.2,0.1,0.3c0.1,0.1,0.2,0.1,0.3,0.1c0.1,0,0.2,0,0.3-0.1c0.1-0.1,0.1-0.2,0.2-0.3
	C22.1,19.2,22.1,19.1,22,19.1 M20.9,19.1C20.8,19,20.8,19,20.6,19c-0.1,0-0.2,0-0.3,0.1c-0.1,0.1-0.1,0.2-0.2,0.3
	c0,0.1,0,0.2,0.1,0.3c0.1,0.1,0.2,0.1,0.3,0.1c0.1,0,0.2,0,0.3-0.1c0.1-0.1,0.1-0.2,0.2-0.3C21,19.2,21,19.1,20.9,19.1 M20.9,22.4
	c0,0.2-0.1,0.3-0.1,0.3c0,0.1-0.1,0.1-0.2,0.1c-0.1,0-0.2,0-0.2-0.1c0-0.1,0-0.2,0-0.3l0.4-2.4h-1.1l-0.4,2.5c-0.1,0.5,0,0.8,0.3,1
	c0.2,0.2,0.5,0.3,0.9,0.3c0.3,0,0.6-0.1,0.8-0.2c0.2-0.1,0.3-0.2,0.4-0.4c0.1-0.1,0.2-0.3,0.2-0.5l0.4-2.6h-1.1L20.9,22.4 M7,16.1
	c0,0.1-0.1,0.2-0.1,0.2c-0.1,0.1-0.2,0.1-0.3,0.1H6.5l0.1-0.6c0,0,0,0,0.1,0h0C7,15.7,7.1,15.8,7,16.1 M6.4,17.2
	c0.1,0,0.2,0,0.3,0.1c0.1,0.1,0.1,0.2,0.1,0.3c0,0.1-0.1,0.2-0.2,0.3c-0.1,0.1-0.2,0.1-0.3,0.1h0c0,0,0,0-0.1,0L6.4,17.2L6.4,17.2
	L6.4,17.2z M8.1,16c0.1-0.3,0-0.6-0.2-0.8c-0.2-0.2-0.5-0.3-1-0.3H5.7l-0.6,3.7h1.5c0.4,0,0.7-0.1,0.9-0.3c0.2-0.2,0.4-0.4,0.5-0.8
	c0-0.3,0-0.4-0.1-0.6c-0.1-0.1-0.3-0.2-0.6-0.3C7.7,16.7,8,16.5,8.1,16 M12.3,18.7l0.2-0.9c0-0.1,0-0.3,0.1-0.5c0-0.2,0-0.4,0-0.7
	c0,0.1,0,0.2,0.1,0.4c0,0.1,0,0.3,0.1,0.4l0.3,1.4h1l0.6-3.7h-1l-0.1,0.8c0,0.2,0,0.3-0.1,0.6c0,0.2,0,0.5,0,0.8l-0.1-0.3
	c0-0.1,0-0.2-0.1-0.3c0-0.1,0-0.2-0.1-0.3L12.8,15h-1l-0.6,3.7L12.3,18.7 M16.4,16.9c-0.1,0.6-0.3,0.9-0.7,0.9l0.3-1.9h0
	c0.2,0,0.3,0.1,0.3,0.3C16.4,16.3,16.4,16.6,16.4,16.9 M17.5,16.8c0.1-0.6,0-1.1-0.3-1.5C16.9,15.1,16.5,15,16,15h-0.9l-0.6,3.7h1
	c0.5,0,1-0.1,1.3-0.4C17.1,17.9,17.4,17.4,17.5,16.8 M18.5,18.7l0.2-0.9c0-0.1,0-0.3,0.1-0.5c0-0.2,0-0.4,0-0.7c0,0.1,0,0.2,0.1,0.4
	c0,0.1,0,0.3,0.1,0.4l0.3,1.4h1l0.6-3.7h-1l-0.1,0.8c0,0.2,0,0.3-0.1,0.6c0,0.2,0,0.5,0,0.8l-0.1-0.3c0-0.1,0-0.2-0.1-0.3
	c0-0.1,0-0.2-0.1-0.3L19,15h-1l-0.6,3.7H18.5 M22.3,15h-1.1l-0.6,3.7h1.1L22.3,15 M22.9,18.7c0.4,0,0.7-0.1,0.9-0.3
	c0.3-0.2,0.4-0.5,0.5-0.9c0-0.2,0-0.4-0.1-0.5c-0.1-0.2-0.2-0.3-0.4-0.5l-0.1-0.1c-0.1-0.1-0.2-0.2-0.2-0.3c0-0.1,0-0.1,0.1-0.2
	c0.1,0,0.1-0.1,0.2-0.1c0.1,0,0.2,0,0.3,0.1c0.1,0.1,0.2,0.2,0.2,0.3l0.2-1.1C24.4,15,24.1,15,23.9,15c-0.3,0-0.5,0.1-0.8,0.2
	c-0.1,0.1-0.2,0.1-0.2,0.2c-0.1,0.1-0.1,0.1-0.2,0.2c-0.1,0.2-0.2,0.4-0.2,0.5c0,0.1,0,0.2,0,0.3c0,0.1,0,0.2,0.1,0.3
	c0,0.1,0.1,0.2,0.2,0.2c0.1,0.1,0.2,0.2,0.3,0.2l0.2,0.1c0.1,0.1,0.2,0.2,0.1,0.3c0,0.1,0,0.1-0.1,0.2c-0.1,0-0.1,0.1-0.2,0.1
	c-0.2,0-0.4-0.1-0.6-0.4l-0.2,1.1C22.4,18.6,22.7,18.7,22.9,18.7 M27.7,16.2c-0.1,0.3-0.2,0.5-0.4,0.5c-0.2,0-0.3-0.2-0.2-0.5
	c0.1-0.3,0.2-0.5,0.4-0.5C27.7,15.7,27.8,15.9,27.7,16.2 M28.5,15.3c-0.2-0.2-0.5-0.4-0.9-0.4c-0.4,0-0.8,0.1-1,0.4
	c-0.3,0.2-0.5,0.6-0.5,0.9c-0.1,0.3,0,0.6,0.1,0.8c0.2,0.2,0.4,0.3,0.6,0.3c0.1,0,0.2,0,0.4-0.1c-0.1,0.1-0.1,0.1-0.1,0.2
	c0,0-0.1,0.1-0.1,0.1l-0.8,1.1h1.1l0.5-0.6c0.5-0.7,0.9-1.3,0.9-1.8C28.8,15.9,28.7,15.6,28.5,15.3 M30.7,16.8
	c-0.1,0.3-0.1,0.6-0.2,0.7c-0.1,0.2-0.2,0.2-0.3,0.2c-0.2,0-0.3-0.4-0.2-1.1c0.1-0.6,0.3-0.9,0.5-0.9C30.8,15.9,30.8,16.2,30.7,16.8
	 M31.6,15.5c-0.2-0.3-0.5-0.5-0.9-0.5c-0.4,0-0.8,0.2-1.1,0.5c-0.3,0.3-0.5,0.8-0.6,1.3c-0.1,0.6-0.1,1.1,0.1,1.4
	c0.2,0.3,0.5,0.5,1,0.5c0.4,0,0.8-0.2,1.1-0.5c0.3-0.3,0.5-0.8,0.6-1.3C31.9,16.3,31.8,15.8,31.6,15.5 M6.1,21.9
	c-0.1,0.6-0.3,0.9-0.7,0.9l0.3-1.9h0c0.2,0,0.3,0.1,0.3,0.3C6.2,21.4,6.2,21.6,6.1,21.9 M7.2,21.9c0.1-0.6,0-1.1-0.3-1.5
	C6.6,20.1,6.2,20,5.7,20H4.8l-0.6,3.7h1c0.5,0,1-0.1,1.3-0.4C6.9,23,7.1,22.5,7.2,21.9 M9,20H7.9l-0.6,3.7h1.1L9,20 M10.8,23.7
	l0.1-0.9H10l0.1-0.5h0.8l0.1-0.9h-0.8l0.1-0.5h0.9l0.1-0.9h-2l-0.6,3.7H10.8 M14.5,22.4h0.4c0,0.1,0,0.1-0.1,0.2
	c0,0.1-0.1,0.1-0.1,0.2c0,0-0.1,0.1-0.1,0.1c0,0-0.1,0-0.2,0c-0.1,0-0.2-0.1-0.3-0.2c0-0.1,0-0.4,0-0.7c0.1-0.7,0.3-1.1,0.6-1.1
	c0.1,0,0.1,0,0.2,0.1c0,0.1,0.1,0.2,0.1,0.3l1.1-0.4c-0.2-0.6-0.6-0.9-1.2-0.9c-0.5,0-0.9,0.2-1.2,0.5c-0.3,0.3-0.5,0.8-0.6,1.4
	c-0.1,0.6,0,1,0.2,1.4c0.2,0.3,0.6,0.5,1,0.5c0.5,0,0.9-0.2,1.2-0.5c0.3-0.3,0.5-0.8,0.6-1.5l0-0.1h-1.5L14.5,22.4 M18.1,21.2
	c0,0.1-0.1,0.2-0.2,0.3c-0.1,0.1-0.2,0.1-0.3,0.1h-0.1l0.1-0.9h0C18,20.8,18.1,20.9,18.1,21.2 M19.1,21.2c0.1-0.4,0-0.7-0.3-1
	c-0.2-0.2-0.5-0.3-1-0.3h-1.1l-0.6,3.7h1l0.2-1.3l0-0.2c0,0.1,0,0.1,0,0.1c0,0,0,0.1,0,0.1l0.3,1.3h1.1l-0.5-1.5
	C18.8,22,19.1,21.7,19.1,21.2 M23.3,23.7l0.2-0.9c0-0.1,0-0.3,0.1-0.5c0-0.2,0-0.4,0-0.7c0,0.1,0,0.2,0.1,0.4c0,0.1,0,0.3,0.1,0.4
	l0.3,1.4h1l0.6-3.7h-1l-0.1,0.8c0,0.2,0,0.3-0.1,0.6c0,0.2,0,0.5-0.1,0.8l-0.1-0.3c0-0.1,0-0.2-0.1-0.3c0-0.1,0-0.2-0.1-0.3L23.8,20
	h-1l-0.6,3.7L23.3,23.7 M27.4,23.7l0.1-0.9h-0.9l0.1-0.5h0.8l0.1-0.9h-0.8l0.1-0.5h0.9L28,20h-2l-0.6,3.7H27.4 M28.8,23.7l0.2-0.9
	c0-0.1,0-0.3,0.1-0.5c0-0.2,0-0.4,0-0.7c0,0.1,0,0.2,0.1,0.4c0,0.1,0.1,0.3,0.1,0.4l0.3,1.4h1l0.6-3.7h-1L30,20.8
	c0,0.2,0,0.3-0.1,0.6c0,0.2,0,0.5,0,0.8l-0.1-0.3c0-0.1,0-0.2-0.1-0.3c0-0.1,0-0.2-0.1-0.3L29.4,20h-1l-0.6,3.7L28.8,23.7"/>
</svg>
