<?xml version="1.0" encoding="utf-8"?>
<!-- Generator: Adobe Illustrator 20.0.0, SVG Export Plug-In . SVG Version: 6.00 Build 0)  -->
<svg version="1.1" id="Ebene_1" xmlns="http://www.w3.org/2000/svg" xmlns:xlink="http://www.w3.org/1999/xlink" x="0px" y="0px"
	 viewBox="0 0 50 50" style="enable-background:new 0 0 50 50;" xml:space="preserve">
<style type="text/css">
	.st0{fill:#E2001A;}
	.st1{fill:#FFFFFF;}
</style>
<rect class="st0" width="50" height="50"/>
<path id="S" class="st1" d="M12.8,35.1l1.9-2.9c-10.6-5.9-15.6,6.9-6,8.5c4.7,0.7,0.6,4.7-3.8,0.9l-1.9,3.2
	c10.9,7.2,17.9-7.2,6.8-8.2C7.4,36.5,7.2,32.8,12.8,35.1z"/>
<path id="P" class="st1" d="M16.2,30.9v15.4h4.4v-5.1H24c5.4,0,5.6-10.4,0-10.3H16.2z M20.6,34.3h1.8c1.9,0,1.9,3.7,0,3.7h-1.8V34.3
	z"/>
<path id="D" class="st1" d="M29.1,30.9v15.4h6.8c8.7,0.1,8.7-15.4,0.1-15.4H29.1z M33.4,34.6h0.7c5.4,0,5.4,8.2,0,8.2h-0.7V34.6z"/>
</svg>
