<?xml version="1.0" encoding="UTF-8" standalone="no"?>
<!-- Created with Inkscape (http://www.inkscape.org/) -->
<svg
   xmlns:svg="http://www.w3.org/2000/svg"
   xmlns="http://www.w3.org/2000/svg"
   version="1.0"
   width="922.85712"
   height="274.28571"
   id="svg22617">
  <defs
     id="defs22619" />
  <g
     transform="translate(491.42856,-289.50504)"
     id="layer1">
    <path
       d="M -52.748873,351.79421 C -32.866215,351.79421 -20.871565,354.90875 -11.755631,362.40643 C 3.3942225,374.87273 9.566385,398.21147 5.6305133,424.02234 C -0.1513148,461.85224 -16.146892,496.16101 -69.826002,496.16101 L -116.34898,496.16101 L -94.238165,351.79421 L -52.748873,351.79421 z M -24.734249,297.3263 C 56.536622,297.3263 101.8886,345.00402 93.016623,424.00607 C 84.323551,501.48745 42.395133,552.23092 -55.066483,552.23092 L -210.62287,552.23092 L -171.54877,297.3263 L -24.734249,297.3263"
       id="path10201"
       style="fill:#ed1c24;fill-opacity:1;fill-rule:evenodd;stroke:none" />
    <path
       d="M 229.46289,297.3263 L 207.54724,440.27814 C 202.65179,472.22863 220.2819,496.06342 254.45242,496.06342 C 283.56486,496.06342 308.0746,476.47352 313.62874,440.27 L 335.54439,297.3263 L 421.53993,297.3263 L 400.94979,431.63386 C 389.6057,505.65915 348.31157,556.62218 248.32092,556.62218 C 181.89088,556.62218 145.03681,532.58409 129.13882,501.61756 C 117.24175,478.44145 116.71317,451.17497 120.21805,428.30788 L 140.29588,297.3263 L 229.46289,297.3263"
       id="path10203"
       style="fill:#ed1c24;fill-opacity:1;fill-rule:nonzero;stroke:none" />
    <path
       d="M -233.63633,484.36153 C -246.47671,488.33806 -275.89003,491.71282 -305.18137,491.71282 C -371.2292,491.71282 -394.09629,460.65684 -391.6567,424.00607 C -388.94062,383.17547 -353.68855,354.32325 -285.18487,354.32325 C -257.56058,354.32325 -228.00901,361.41433 -220.83662,363.65062 L -211.60683,303.73429 C -224.3171,300.17249 -260.53688,292.91877 -310.15,292.91877 C -431.97499,292.91877 -473.65945,360.25959 -481.58812,409.54744 C -492.73704,478.85618 -448.52354,556.63031 -331.09795,556.63031 C -293.68277,556.63031 -255.43813,551.08431 -243.07754,545.35127 L -233.63633,484.36153"
       id="path10205"
       style="fill:#ed1c24;fill-opacity:1;fill-rule:nonzero;stroke:none" />
  </g>
</svg>
