<?xml version="1.0" encoding="utf-8"?>
<!-- Generator: Adobe Illustrator 20.0.0, SVG Export Plug-In . SVG Version: 6.00 Build 0)  -->
<svg version="1.1" xmlns="http://www.w3.org/2000/svg" xmlns:xlink="http://www.w3.org/1999/xlink" x="0px" y="0px"
	 viewBox="0 0 100 100" style="enable-background:new 0 0 100 100;" xml:space="preserve">
<style type="text/css">
	.st0{fill:#2B2B2B;}
	.st1{fill:#FFFFFF;}
	.st2{fill:#FCFCFC;}
</style>
<g id="Ebene_1">
	<rect class="st0" width="100" height="100"/>
</g>
<g id="Ebene_2">
	<path class="st1" d="M51,25.1c-14.1,0-25.5,11.4-25.5,25.5c0,14.1,11.4,25.5,25.5,25.5l0,0l0,0l0,0c14.1,0,25.5-11.4,25.5-25.5
		S65.1,25.1,51,25.1z M29.4,52.6h7.9c0.1,2.8,0.4,5.5,1,8h-6.6C30.4,58.1,29.6,55.4,29.4,52.6z M52.9,37v-7.5
		c1.7,0.8,3.4,2.7,4.7,5.4c0.3,0.7,0.6,1.4,0.9,2.1H52.9z M59.8,40.8c0.6,2.5,1,5.2,1.1,8h-7.9v-8H59.8z M49.1,29.4V37h-5.6
		c0.3-0.8,0.6-1.4,0.9-2.1C45.7,32.1,47.4,30.2,49.1,29.4z M49.1,40.8v8h-7.9c0.1-2.8,0.5-5.5,1.1-8H49.1z M37.3,48.7h-7.9
		c0.3-2.8,1.1-5.5,2.3-8h6.6C37.8,43.2,37.4,45.9,37.3,48.7z M41.2,52.6h7.9v8h-6.9C41.7,58.1,41.3,55.4,41.2,52.6z M49.1,64.3v7.5
		c-1.7-0.8-3.4-2.7-4.7-5.4c-0.3-0.7-0.6-1.4-0.9-2.1H49.1z M52.9,71.8v-7.5h5.6c-0.3,0.8-0.6,1.4-0.9,2.1
		C56.3,69.2,54.6,71,52.9,71.8z M52.9,60.5v-8h7.9c-0.1,2.8-0.5,5.5-1.1,8H52.9z M64.7,52.6h7.9c-0.3,2.8-1.1,5.5-2.3,8h-6.6
		C64.2,58.1,64.6,55.4,64.7,52.6z M64.7,48.7c-0.1-2.8-0.4-5.5-1-8h6.6c1.2,2.4,2,5.1,2.3,8H64.7z M67.8,37h-5.2
		c-0.8-2.4-1.8-4.4-3-6.2C62.9,32.2,65.6,34.3,67.8,37z M42.3,30.8c-1.1,1.7-2.1,3.8-3,6.2h-5.2C36.4,34.3,39.1,32.2,42.3,30.8z
		 M34.2,64.3h5.2c0.8,2.4,1.8,4.4,3,6.2C39.1,69.1,36.4,67,34.2,64.3z M59.7,70.5c1.1-1.7,2.1-3.8,3-6.2h5.2
		C65.6,67,62.9,69.1,59.7,70.5z"/>
</g>
</svg>
