<?xml version="1.0" encoding="utf-8"?>
<!-- Generator: Adobe Illustrator 20.0.0, SVG Export Plug-In . SVG Version: 6.00 Build 0)  -->
<svg version="1.1" xmlns="http://www.w3.org/2000/svg" xmlns:xlink="http://www.w3.org/1999/xlink" x="0px" y="0px"
	 viewBox="0 0 100 100" style="enable-background:new 0 0 100 100;" xml:space="preserve">
<style type="text/css">
	.st0{fill:#2B2B2B;}
	.st1{fill:#FFFFFF;}
	.st2{fill:#FCFCFC;}
</style>
<g id="Ebene_1">
	<rect class="st0" width="100" height="100"/>
</g>
<g id="Ebene_2">
	<path class="st1" d="M51,22.3c-15.6,0-28.3,12.7-28.3,28.3C22.7,66.3,35.4,79,51,79l0,0l0,0l0,0c15.6,0,28.3-12.7,28.3-28.3
		S66.7,22.3,51,22.3z M27.1,52.8h8.8C36,56,36.4,59,37,61.7h-7.3C28.2,59,27.3,56,27.1,52.8z M53.2,35.5v-8.3c1.9,0.9,3.8,3,5.2,6
		c0.4,0.8,0.7,1.6,1,2.4H53.2z M60.7,39.7c0.7,2.7,1.1,5.7,1.2,8.9h-8.8v-8.9H60.7z M48.9,27.1v8.3h-6.3c0.3-0.8,0.7-1.6,1-2.4
		C45.2,30.1,47,28,48.9,27.1z M48.9,39.7v8.9h-8.8c0.1-3.1,0.5-6.1,1.2-8.9H48.9z M35.8,48.5H27c0.3-3.2,1.2-6.1,2.6-8.9h7.3
		C36.4,42.4,35.9,45.4,35.8,48.5z M40.1,52.8h8.8v8.9h-7.6C40.7,58.9,40.2,55.9,40.1,52.8z M48.9,65.9v8.3c-1.9-0.9-3.8-3-5.2-6
		c-0.4-0.8-0.7-1.6-1-2.4H48.9z M53.2,74.2v-8.3h6.3c-0.3,0.8-0.7,1.6-1,2.4C56.9,71.2,55,73.3,53.2,74.2z M53.2,61.6v-8.9H62
		c-0.1,3.1-0.5,6.1-1.2,8.9H53.2z M66.2,52.8h8.8c-0.3,3.2-1.2,6.1-2.6,8.9h-7.3C65.7,58.9,66.1,55.9,66.2,52.8z M66.2,48.5
		c-0.1-3.2-0.5-6.1-1.1-8.9h7.3c1.4,2.7,2.3,5.7,2.6,8.9H66.2z M69.7,35.5H64c-0.9-2.6-2-4.9-3.3-6.9C64.2,30.2,67.2,32.5,69.7,35.5
		z M41.4,28.6c-1.3,1.9-2.4,4.2-3.3,6.9h-5.7C34.8,32.5,37.8,30.2,41.4,28.6z M32.4,65.9h5.7c0.9,2.6,2,4.9,3.3,6.9
		C37.8,71.2,34.8,68.9,32.4,65.9z M60.7,72.7c1.3-1.9,2.4-4.2,3.3-6.9h5.7C67.2,68.9,64.2,71.2,60.7,72.7z"/>
</g>
</svg>
