<?xml version="1.0" encoding="utf-8"?>
<!-- Generator: Adobe Illustrator 20.0.0, SVG Export Plug-In . SVG Version: 6.00 Build 0)  -->
<svg version="1.1" xmlns="http://www.w3.org/2000/svg" xmlns:xlink="http://www.w3.org/1999/xlink" x="0px" y="0px"
	 viewBox="0 0 100 100" style="enable-background:new 0 0 100 100;" xml:space="preserve">
<style type="text/css">
	.st0{fill:#2B2B2B;}
	.st1{fill:#FFFFFF;}
	.st2{fill:#FCFCFC;}
</style>
<g id="Ebene_1">
	<rect class="st0" width="100" height="100"/>
</g>
<g id="Ebene_2">
	<path class="st1" d="M23.7,32.4c0-2.9,2.4-5.3,5.3-5.3s5.3,2.4,5.3,5.3c0,2.9-2.4,5.3-5.3,5.3S23.7,35.3,23.7,32.4L23.7,32.4z"/>
	<path class="st1" d="M43.9,27c0,3.3,2.6,5.9,5.9,5.9c3.3,0,5.9-2.6,5.9-5.9"/>
	<circle class="st1" cx="70.6" cy="32.9" r="5.3"/>
	<path class="st1" d="M44,26.4h11.5c0.4,0,0.8-0.4,0.8-0.8c0-0.4-0.4-0.8-0.8-0.8h-0.2c0-2.2-1.2-4-3-5l-0.5,2.6
		c0,0.2-0.2,0.4-0.4,0.4c0,0,0,0-0.1,0c-0.2,0-0.4-0.3-0.3-0.5l0.5-3c-0.2-0.3-0.5-0.5-0.9-0.5H49c-0.4,0-0.7,0.2-0.9,0.5l0.5,3
		c0,0.2-0.1,0.5-0.3,0.5c0,0,0,0-0.1,0c-0.2,0-0.4-0.1-0.4-0.4l-0.5-2.6c-1.8,0.9-3,2.8-3,4.9H44c-0.4,0-0.8,0.4-0.8,0.8
		S43.6,26.4,44,26.4z"/>
	<path class="st1" d="M37.8,58.8c1-0.1,1.7-1,1.6-2.1c0,0,0-0.1,0-0.1L37,42.4c-0.4-1.7-1.8-3-3.5-3.3c-0.1,0-1.5,0-2.2,0L29,51.5
		l-2.1-12.4c-0.8,0-2.3,0-2.4,0c-1.7,0.3-3.1,1.6-3.5,3.3l-2.4,14.2c-0.2,1,0.5,1.9,1.5,2.1c0,0,0.1,0,0.1,0c0.2,0,0.5,0,0.7-0.1
		l-1.6,6.6c-0.1,0.6,0.3,1.3,0.9,1.4c0.1,0,0.2,0,0.2,0h4.7l0.9,10.3c0.1,0.9,0.8,1.5,1.7,1.5h2.4c0.9,0,1.6-0.7,1.7-1.5l0.9-10.3
		h4.7c0.7,0,1.2-0.5,1.2-1.2c0-0.1,0-0.2,0-0.2l-1.6-6.6C37.3,58.8,37.6,58.8,37.8,58.8z"/>
	<path class="st1" d="M56.4,34.5c-0.2,0-0.8,0-1,0h-1l-4.2,3.2l-4.7-3.2h-1.6c-2.8,0-5,2.2-5,5c0,0.2,0,0.4,0,0.6l1.7,10.9
		c0.2,1.6,1.2,3,2.8,3.5l2.4,22.4c0.1,1,0.9,1.7,1.9,1.7h3.9c1,0,1.8-0.7,1.9-1.7l2.4-22.4c1.6-0.5,2.7-1.9,2.9-3.5L60.8,40
		C61.1,37.3,59.1,34.8,56.4,34.5z"/>
	<path class="st1" d="M81.2,56.6c0,0,0,0.3,0,0.2l-2.3-14.1c-0.4-1.7-1.8-2.9-3.5-3.2c0,0-1.2,0-2.7,0l-0.4,2.5
		c0,0.1-0.2-0.2-0.3-0.2h-2.6c-0.2,0-0.3,0.3-0.3,0.2l-0.4-2.7c-1.2,0-2.1,0.1-2.1,0.1c-1.7,0.3-3.1,1.6-3.5,3.3l-2.4,14.2
		c-0.2,1,0.5,2,1.5,2.1c0,0,0.1,0,0.1,0l3.1,0l2.2,18.6c0.1,0.9,0.8,1.1,1.7,1.1h3.5c0.9,0,1.6-0.8,1.7-1.7L76.5,58h3.2
		C80.6,58,81.3,57.6,81.2,56.6z M73.2,52.1L70.9,54c-0.2,0.2-0.5,0.2-0.7,0l-2.3-1.9c-0.1-0.1-0.2-0.3-0.2-0.5l1.1-7.8
		c0-0.3,0.3-0.8,0.5-0.8h2.3c0.3,0,0.5,0.5,0.5,0.8l1.1,7.7C73.4,51.6,73.3,52,73.2,52.1z"/>
</g>
</svg>
