<?xml version="1.0" encoding="utf-8"?>
<!-- Generator: Adobe Illustrator 20.0.0, SVG Export Plug-In . SVG Version: 6.00 Build 0)  -->
<svg version="1.1" xmlns="http://www.w3.org/2000/svg" xmlns:xlink="http://www.w3.org/1999/xlink" x="0px" y="0px"
	 viewBox="0 0 100 100" style="enable-background:new 0 0 100 100;" xml:space="preserve">
<style type="text/css">
	.st0{fill:#2B2B2B;}
	.st1{fill:#FFFFFF;}
	.st2{fill:#FCFCFC;}
</style>
<g id="Ebene_1">
	<rect class="st0" width="100" height="100"/>
</g>
<g id="Ebene_2">
	<g>
		<path class="st1" d="M67.9,23.9l-2.2,10.4c-2.1-2.1-5.2-3.2-9.3-3.2c-4.1,0-7.4,1.5-9.9,4.4c-1.4,1.6-2.4,3.7-3,6.2h20.6l-1.2,5.8
			H42.8c0,0.6,0,1.3,0,2.2c0,0.9,0,1.8,0.1,2.7h19.1l-1.2,5.8H43.6c0.6,2.7,1.6,4.8,2.9,6.3c2.5,2.9,5.7,4.4,9.7,4.4
			c4.8,0,8.6-1.5,11.5-4.4v11.5c-3.2,1.6-7,2.4-11.3,2.4c-7.3,0-13.3-2.5-18-7.5c-3.2-3.4-5.3-7.6-6.3-12.7h-5.5l1.2-5.8h3.7
			c0-0.6,0-1.2,0-1.9c0-1.1,0-2.2,0.1-3h-4.9l1.2-5.8h4.5c1-5,3.1-9.1,6.2-12.5c4.7-5,10.9-7.6,18.6-7.6
			C61.2,21.6,64.9,22.3,67.9,23.9z"/>
	</g>
</g>
</svg>
