<?xml version="1.0" encoding="utf-8"?>
<!-- Generator: Adobe Illustrator 20.0.0, SVG Export Plug-In . SVG Version: 6.00 Build 0)  -->
<svg version="1.1" xmlns="http://www.w3.org/2000/svg" xmlns:xlink="http://www.w3.org/1999/xlink" x="0px" y="0px"
	 viewBox="0 0 100 100" style="enable-background:new 0 0 100 100;" xml:space="preserve">
<style type="text/css">
	.st0{fill:#2B2B2B;}
	.st1{fill:#FFFFFF;}
	.st2{fill:#FCFCFC;}
</style>
<g id="Ebene_1">
	<rect class="st0" width="100" height="100"/>
</g>
<g id="Ebene_2">
	<g>
		<path class="st1" d="M25.2,31.5c0-2.9,2.4-5.3,5.3-5.3s5.3,2.4,5.3,5.3c0,2.9-2.4,5.3-5.3,5.3S25.2,34.4,25.2,31.5L25.2,31.5z"/>
		<path class="st1" d="M21.7,57.8c0.2,0,0.5,0,0.7-0.1l-1.6,6.6c-0.1,0.6,0.3,1.3,0.9,1.4c0.1,0,0.1,0,0.2,0h4.7L27.6,76
			c0.1,0.9,0.8,1.5,1.7,1.5h2.4c0.9,0,1.6-0.7,1.7-1.5l0.9-10.3H39c0.6,0,1.2-0.5,1.2-1.2c0-0.1,0-0.1,0-0.2l-1.6-6.6
			c0.2,0.1,0.5,0.1,0.7,0.1c1-0.1,1.7-1,1.6-2c0,0,0-0.1,0-0.1l-2.3-14.2c-0.4-1.7-1.8-3-3.5-3.3c-0.3,0-8.6,0-8.9,0
			c-1.7,0.3-3.1,1.6-3.5,3.3l-2.3,14.2C20,56.6,20.6,57.6,21.7,57.8C21.6,57.8,21.7,57.8,21.7,57.8z"/>
		<path class="st1" d="M67.2,41.7c0-2.3,1.8-4.1,4.1-4.1c2.3,0,4.1,1.8,4.1,4.1c0,2.3-1.8,4.1-4.1,4.1C69,45.8,67.2,43.9,67.2,41.7
			L67.2,41.7z"/>
		<path class="st1" d="M64.4,62.1c0.2,0,0.4,0,0.6,0l-1.2,5.1c-0.1,0.5,0.2,1,0.7,1.1c0.1,0,0.1,0,0.2,0h3.6l0.7,8
			c0.1,0.7,0.7,1.2,1.3,1.2h1.8c0.7,0,1.3-0.5,1.3-1.2l0.7-8h3.7c0.5,0,0.9-0.4,0.9-0.9c0-0.1,0-0.1,0-0.2l-1.2-5.1
			c0.2,0.1,0.4,0.1,0.6,0c0.8-0.1,1.3-0.8,1.2-1.6c0,0,0,0,0-0.1l-2.1-11.2c-0.3-1.3-1.4-2.2-2.8-2.4c-0.2,0-6.1,0-6.3,0
			c-1.4,0.2-2.4,1.2-2.8,2.5l-2.2,11.1C63.1,61.3,63.6,62,64.4,62.1C64.4,62.1,64.4,62.1,64.4,62.1z"/>
		<circle class="st1" cx="52.4" cy="25.5" r="6"/>
		<path class="st1" d="M43.2,49.6c0.2,1.6,1.3,3,2.8,3.6l2.5,22.7c0.1,1,0.9,1.7,1.9,1.7h3.9c1,0,1.8-0.7,1.9-1.7l2.5-22.7
			c1.6-0.5,2.7-1.9,2.9-3.6l1.5-11c0.3-2.8-1.7-5.3-4.4-5.6c-0.2,0-0.4,0-0.6,0H46.7c-2.8,0-5,2.2-5,5c0,0.2,0,0.4,0,0.6L43.2,49.6z
			"/>
	</g>
</g>
</svg>
