<?xml version="1.0" encoding="utf-8"?>
<!-- Generator: Adobe Illustrator 20.0.0, SVG Export Plug-In . SVG Version: 6.00 Build 0)  -->
<svg version="1.1" xmlns="http://www.w3.org/2000/svg" xmlns:xlink="http://www.w3.org/1999/xlink" x="0px" y="0px"
	 viewBox="0 0 100 100" style="enable-background:new 0 0 100 100;" xml:space="preserve">
<style type="text/css">
	.st0{fill:#2B2B2B;}
	.st1{fill:#FFFFFF;}
	.st2{fill:#FCFCFC;}
</style>
<g id="Ebene_1">
	<rect class="st0" width="100" height="100"/>
</g>
<g id="Ebene_2">
	<g>
		<path class="st1" d="M67.6,70h-1.2l-3.2-25.6c-0.6-3.9-3.9-6.4-7.9-6.4H44c-4.2,0-7.5,2.4-8.1,6.4L32.7,70h-1.1
			c-1.2,0-1.6,0.8-1.6,1.9v3.8c0,1.2,0.3,2.2,1.6,2.2h36c1.2,0,2.4-1.1,2.4-2.2v-3.8C70,70.8,68.8,71,67.6,70z M49.1,48.3
			c0.1-1.4,1-2.3,2.1-2.3h5.9c0.9,0,1.7,0.3,2.3,0.9L62.2,70H47.1L49.1,48.3z"/>
		<path class="st1" d="M70.4,43c-0.8,0-1.5-0.4-1.9-1.2c-0.5-1.1-0.1-2.3,1-2.8l4-1.9c1.1-0.5,2.3-0.1,2.8,1c0.5,1.1,0.1,2.3-1,2.8
			l-4,1.9C71,42.8,70.7,43,70.4,43z"/>
		<path class="st1" d="M28.7,43c-0.3,0-0.6-0.1-0.9-0.2l-4-1.9c-1.1-0.5-1.5-1.7-1-2.8c0.5-1.1,1.7-1.5,2.8-1l4,1.9
			c1.1,0.5,1.5,1.7,1,2.8C30.2,42.5,29.5,43,28.7,43z"/>
		<path class="st1" d="M37.1,30.8c-0.8,0.2-1.6,0-2.1-0.6l-3-3.1c-0.8-0.8-0.7-2.2,0.1-3c0.8-0.8,2.2-0.7,3,0.1l3,3.2
			c0.8,0.8,0.7,2.2-0.1,3C37.8,30.6,37.4,30.7,37.1,30.8z"/>
		<path class="st1" d="M49.4,27.1c-0.7-0.4-1.1-1-1.1-1.8l0-4.4c0-1.1,1-2.1,2.1-2.1s2.1,1,2.1,2.1l0,4.3c0,1.1-1,2.1-2.1,2.1
			C50,27.4,49.7,27.3,49.4,27.1z"/>
		<path class="st1" d="M61.7,30.3c-0.8-0.8-0.9-2.2-0.1-3l3-3.2c0.8-0.8,2.2-0.9,3-0.1c0.8,0.8,0.9,2.2,0.1,3l-3,3.1
			c-0.5,0.6-1.3,0.8-2.1,0.6C62.3,30.7,62,30.6,61.7,30.3z"/>
	</g>
</g>
</svg>
