<?xml version="1.0" encoding="utf-8"?>
<!-- Generator: Adobe Illustrator 20.0.0, SVG Export Plug-In . SVG Version: 6.00 Build 0)  -->
<svg version="1.1" xmlns="http://www.w3.org/2000/svg" xmlns:xlink="http://www.w3.org/1999/xlink" x="0px" y="0px"
	 viewBox="0 0 100 100" style="enable-background:new 0 0 100 100;" xml:space="preserve">
<style type="text/css">
	.st0{fill:#2B2B2B;}
	.st1{fill:#FFFFFF;}
	.st2{fill:#FCFCFC;}
</style>
<g id="Ebene_1">
	<rect class="st0" width="100" height="100"/>
</g>
<g id="Ebene_2">
	<g>
		<path class="st1" d="M63.8,30.3l-8.3,0.9c-0.1-1.5-0.5-2.6-1.3-3.4c-0.8-0.8-1.9-1.2-3.3-1.2c-1.3,0-2.3,0.3-3,0.9
			c-0.7,0.6-1,1.2-1,2c0,1,0.5,1.9,1.4,2.8c0.6,0.6,2.7,2,6.2,4.3c3.5,2.3,5.8,3.9,7,4.8c1.8,1.5,3,2.9,3.8,4.4s1.1,3,1.1,4.8
			c0,1.9-0.5,3.6-1.4,5.2c-0.9,1.6-2.3,3-4.1,4.3c1.2,1.1,2.2,2.3,2.8,3.6c0.6,1.3,0.9,2.6,0.9,4.1c0,3-1.1,5.5-3.4,7.5
			c-2.2,2-5.5,3-9.7,3c-4,0-7.3-1-9.7-3c-2.4-2-3.9-4.7-4.3-8l8.3-1c0.4,1.8,1.1,3.2,2.1,4.1c1,0.9,2.3,1.4,3.9,1.4
			c1.3,0,2.4-0.3,3.2-1c0.8-0.7,1.2-1.5,1.2-2.5c0-0.9-0.4-1.8-1.1-2.5c-0.8-0.7-3.5-2.6-8.1-5.5s-7.6-5.4-9-7.3
			c-1.4-1.9-2.1-4.1-2.1-6.5c0-2,0.5-3.8,1.4-5.5c0.9-1.7,2.3-3.1,4.2-4.2c-1-1.1-1.8-2.2-2.3-3.3c-0.5-1.1-0.8-2.3-0.8-3.5
			c0-2.7,1.1-5,3.2-6.9c2.1-1.9,5.1-2.8,9-2.8c4,0,7.1,0.9,9.3,2.8C62.1,24.8,63.4,27.2,63.8,30.3z M56.2,56.3
			c0.9-0.8,1.5-1.6,2-2.3c0.4-0.7,0.7-1.4,0.7-2.1c0-0.7-0.2-1.4-0.7-2.1c-0.5-0.7-1.7-1.8-3.8-3.3l-8.3-6c-0.7,0.4-1.3,1-1.8,1.7
			c-0.5,0.7-0.8,1.5-0.8,2.4c0,2,1.4,4,4.1,5.8L56.2,56.3z"/>
	</g>
</g>
</svg>
