<?xml version="1.0" encoding="utf-8"?>
<!-- Generator: Adobe Illustrator 20.0.0, SVG Export Plug-In . SVG Version: 6.00 Build 0)  -->
<svg version="1.1" xmlns="http://www.w3.org/2000/svg" xmlns:xlink="http://www.w3.org/1999/xlink" x="0px" y="0px"
	 viewBox="0 0 100 100" style="enable-background:new 0 0 100 100;" xml:space="preserve">
<style type="text/css">
	.st0{fill:#2B2B2B;}
	.st1{fill:#FFFFFF;}
	.st2{fill:#FCFCFC;}
</style>
<g id="Ebene_1">
	<rect class="st0" width="100" height="100"/>
</g>
<g id="Ebene_2">
	<path class="st1" d="M19.5,70.6l8.2-10h-6.5c-0.3,0-0.5-0.2-0.5-0.5c0-0.1,0.1-0.3,0.1-0.3l8.9-8.9h-4.3c-0.3,0-0.6-0.3-0.6-0.6
		c0-0.1,0-0.3,0.1-0.4l10.6-12.4c0.5-0.6,1.4-0.7,2-0.2c0.1,0,0.1,0.1,0.2,0.2l10.6,12.4c0.2,0.2,0.2,0.6-0.1,0.8
		c-0.1,0.1-0.3,0.1-0.4,0.1h-4.3l8.9,8.9c0.2,0.2,0.2,0.5,0,0.7c-0.1,0.1-0.2,0.1-0.3,0.1h-6.5l8.2,10c0.2,0.3,0.2,0.7-0.1,1
		c-0.1,0.1-0.3,0.2-0.4,0.2H39.4v8.4c0,0.8-0.6,1.4-1.4,1.4h-2.8c-0.8,0-1.4-0.6-1.4-1.4v-8.4H20c-0.4,0-0.7-0.3-0.7-0.7
		C19.3,70.9,19.4,70.8,19.5,70.6z"/>
	<g transform="translate(0,-952.36218)">
		<path class="st1" d="M66.7,964.4c-0.5,0-0.9,0.4-0.9,0.9v7.4c0,0.5,0.4,0.9,0.9,0.9s0.9-0.4,0.9-0.9v-7.4
			C67.6,964.8,67.2,964.4,66.7,964.4z M53.9,969.7c-0.2,0-0.5,0.1-0.7,0.3c-0.4,0.4-0.4,1,0,1.3l5.2,5.2c0.4,0.4,1,0.4,1.3,0
			c0.4-0.4,0.4-1,0-1.3l-5.2-5.2C54.4,969.7,54.1,969.7,53.9,969.7z M79.4,969.7c-0.2,0-0.5,0.1-0.7,0.3l-5.2,5.2
			c-0.4,0.4-0.4,1,0,1.3c0.4,0.4,1,0.4,1.3,0l5.2-5.2c0.4-0.4,0.4-1,0-1.3C79.9,969.7,79.7,969.7,79.4,969.7z M66.7,976.4
			c-3.8,0-7,3.1-7,7c0,3.8,3.1,7,7,7s7-3.1,7-7C73.6,979.5,70.5,976.4,66.7,976.4z M48.6,982.4c-0.5,0-0.9,0.4-0.9,0.9
			s0.4,0.9,0.9,0.9H56c0.5,0,0.9-0.4,0.9-0.9c0-0.5-0.4-0.9-0.9-0.9H48.6z M77.3,982.4c-0.5,0-0.9,0.4-0.9,0.9
			c0,0.5,0.4,0.9,0.9,0.9h7.4c0.5,0,0.9-0.4,0.9-0.9s-0.4-0.9-0.9-0.9H77.3z M59.1,990c-0.2,0-0.5,0.1-0.7,0.3l-5.2,5.2
			c-0.4,0.4-0.4,1,0,1.3c0.4,0.4,1,0.4,1.3,0l5.2-5.2c0.4-0.4,0.4-1,0-1.3C59.6,990.1,59.4,990,59.1,990z M74.2,990
			c-0.2,0-0.5,0.1-0.7,0.3c-0.4,0.4-0.4,1,0,1.3l5.2,5.2c0.4,0.4,1,0.4,1.3,0c0.4-0.4,0.4-1,0-1.3l-5.2-5.2
			C74.7,990.1,74.4,990,74.2,990L74.2,990z M66.7,993.1c-0.5,0-0.9,0.4-0.9,0.9v7.4c0,0.5,0.4,0.9,0.9,0.9c0.5,0,0.9-0.4,0.9-0.9
			V994C67.6,993.5,67.2,993.1,66.7,993.1z"/>
	</g>
</g>
</svg>
