<?xml version="1.0" encoding="utf-8"?>
<!-- Generator: Adobe Illustrator 20.0.0, SVG Export Plug-In . SVG Version: 6.00 Build 0)  -->
<svg version="1.1" xmlns="http://www.w3.org/2000/svg" xmlns:xlink="http://www.w3.org/1999/xlink" x="0px" y="0px"
	 viewBox="0 0 100 100" style="enable-background:new 0 0 100 100;" xml:space="preserve">
<style type="text/css">
	.st0{fill:#2B2B2B;}
	.st1{fill:#FFFFFF;}
	.st2{fill:#FCFCFC;}
</style>
<g id="Ebene_1">
	<rect class="st0" width="100" height="100"/>
</g>
<g id="Ebene_2">
	<path class="st1" d="M78.4,36.9H76c-0.8-2.9-4.2-3.8-8.3-3.8s-7.5,0.9-8.3,3.8H48.1c-1,0-1.7,0.8-1.7,1.7l-0.1,1.6H22.2
		c-0.5,0-0.9,0.4-0.9,0.9v2.7c0,0.7,0.5,1.2,1.2,1.2h23.9l0.1,1.7c0,1,0.8,1.8,1.8,1.8h30.2c1,0,1.8-0.8,1.8-1.8v-8.1
		C80.2,37.6,79.4,36.9,78.4,36.9z"/>
	<path class="st2" d="M72.8,51H32.1c-4.8,0-8.8,4.2-8.8,9s4,9,8.8,9h40.7c4.8,0,8.6-4.3,8.6-9.1S77.6,51,72.8,51z M33.2,65.4
		c-3,0-5.6-2.2-5.6-5.2s2.6-5.6,5.6-5.6c3,0,5.2,2.6,5.2,5.6S36.2,65.4,33.2,65.4z M51.7,65.4c-3,0-5.2-2.2-5.2-5.2s2.2-5.6,5.2-5.6
		c3,0,5.6,2.6,5.6,5.6S54.7,65.4,51.7,65.4z M71,65.1c-3,0-5.2-2.2-5.2-5.2c0-3,2.2-5.6,5.2-5.6s5.6,2.6,5.6,5.6
		C76.6,62.9,74,65.1,71,65.1z"/>
</g>
</svg>
