<?xml version="1.0" encoding="utf-8"?>
<!-- Generator: Adobe Illustrator 20.0.0, SVG Export Plug-In . SVG Version: 6.00 Build 0)  -->
<svg version="1.1" xmlns="http://www.w3.org/2000/svg" xmlns:xlink="http://www.w3.org/1999/xlink" x="0px" y="0px"
	 viewBox="0 0 100 100" style="enable-background:new 0 0 100 100;" xml:space="preserve">
<style type="text/css">
	.st0{fill:#2B2B2B;}
	.st1{fill:#FFFFFF;}
	.st2{fill:#FCFCFC;}
</style>
<g id="Ebene_1">
	<rect class="st0" width="100" height="100"/>
</g>
<g id="Ebene_2">
	<path class="st1" d="M38.6,28.7c-1.6,0-2.9,1.1-3.2,2.7l-6.6,35.2c-0.3,1.9,0.9,3.6,2.7,4c0.2,0,0.4,0.1,0.6,0.1H47V58.8h5.2v11.8
		h14.9c1.9,0,3.4-1.5,3.4-3.4c0-0.2,0-0.4-0.1-0.6l-6.6-35.2c-0.3-1.5-1.6-2.7-3.2-2.7h-8.4v9.2H47v-9.2H38.6z M52.3,43.1v10.5H47
		V43.1H52.3z"/>
</g>
</svg>
