<?xml version="1.0" encoding="utf-8"?>
<!-- Generator: Adobe Illustrator 20.0.0, SVG Export Plug-In . SVG Version: 6.00 Build 0)  -->
<svg version="1.1" xmlns="http://www.w3.org/2000/svg" xmlns:xlink="http://www.w3.org/1999/xlink" x="0px" y="0px"
	 viewBox="0 0 100 100" style="enable-background:new 0 0 100 100;" xml:space="preserve">
<style type="text/css">
	.st0{fill:#2B2B2B;}
	.st1{fill:#FFFFFF;}
	.st2{fill:#FCFCFC;}
</style>
<g id="Ebene_1">
	<rect class="st0" width="100" height="100"/>
</g>
<g id="Ebene_2">
	<path class="st1" d="M40.7,27.8H35c-1.2,0-2.1,1-2.1,2.1v41.4c0,1.2,1,2.1,2.1,2.1h35.7c1.2,0,2.1-1,2.1-2.1V41.3c0-1.1-0.9-2-2-2
		c-0.5,0-1.1,0.2-1.4,0.6l-6.5,6.5v-5.1c0-1.1-0.9-2-2-2c-0.5,0-1.1,0.2-1.4,0.6l-6.5,6.5v-5.1c0-1.1-0.9-2-2-2
		c-0.5,0-1.1,0.2-1.4,0.6l-6.5,6.5V29.9C42.9,28.7,41.9,27.8,40.7,27.8z M59.3,54.2c0-0.8,0.6-1.4,1.4-1.4h2.9
		c0.8,0,1.4,0.6,1.4,1.4V57c0,0.8-0.6,1.4-1.4,1.4h-2.9c-0.8,0-1.4-0.6-1.4-1.4V54.2z M59.3,63.5c0-0.8,0.6-1.4,1.4-1.4h2.9
		c0.8,0,1.4,0.6,1.4,1.4v2.9c0,0.8-0.6,1.4-1.4,1.4h-2.9c-0.8,0-1.4-0.6-1.4-1.4V63.5z M50,54.2c0-0.8,0.6-1.4,1.4-1.4h2.9
		c0.8,0,1.4,0.6,1.4,1.4V57c0,0.8-0.6,1.4-1.4,1.4h-2.9c-0.8,0-1.4-0.6-1.4-1.4V54.2z M50,63.5c0-0.8,0.6-1.4,1.4-1.4h2.9
		c0.8,0,1.4,0.6,1.4,1.4v2.9c0,0.8-0.6,1.4-1.4,1.4h-2.9c-0.8,0-1.4-0.6-1.4-1.4V63.5z M46.4,66.3c0,0.8-0.6,1.4-1.4,1.4h-2.9
		c-0.8,0-1.4-0.6-1.4-1.4v-2.9c0-0.8,0.6-1.4,1.4-1.4H45c0.8,0,1.4,0.6,1.4,1.4V66.3z M45,52.8c0.8,0,1.4,0.6,1.4,1.4V57
		c0,0.8-0.6,1.4-1.4,1.4h-2.9c-0.8,0-1.4-0.6-1.4-1.4v-2.9c0-0.8,0.6-1.4,1.4-1.4H45z"/>
</g>
</svg>
