<?xml version="1.0" encoding="utf-8"?>
<!-- Generator: Adobe Illustrator 20.0.0, SVG Export Plug-In . SVG Version: 6.00 Build 0)  -->
<svg version="1.1" xmlns="http://www.w3.org/2000/svg" xmlns:xlink="http://www.w3.org/1999/xlink" x="0px" y="0px"
	 viewBox="0 0 100 100" style="enable-background:new 0 0 100 100;" xml:space="preserve">
<style type="text/css">
	.st0{fill:#2B2B2B;}
	.st1{fill:#FFFFFF;}
	.st2{fill:#FCFCFC;}
</style>
<g id="Ebene_1">
	<rect class="st0" width="100" height="100"/>
</g>
<g id="Ebene_2">
	<g>
		<circle class="st1" cx="50.4" cy="26.6" r="6.6"/>
		<path class="st1" d="M77.1,49H61.2l1-7.9c0.3-3.1-1.9-5.8-4.9-6.2c-0.2,0-0.4,0-0.6,0H44.2c-3.1,0-5.6,2.5-5.6,5.5
			c0,0.2,0,0.4,0,0.6l1,7.8H24.3C22,49,20,50.7,20,53v15.4c0,2.3,2,3.6,4.3,3.6H29v6.5c0,0.7-0.1,1.5,0.6,1.5H37c0.7,0,1-0.9,1-1.5
			V72h25v6.5c0,0.7,0.3,1.5,0.9,1.5h7.4c0.7,0,0.7-0.9,0.7-1.5V72h5.1c2.3,0,3.9-1.3,3.9-3.6V53C81,50.7,79.4,49,77.1,49z"/>
	</g>
</g>
</svg>
