<?xml version="1.0" encoding="utf-8"?>
<!-- Generator: Adobe Illustrator 20.0.0, SVG Export Plug-In . SVG Version: 6.00 Build 0)  -->
<svg version="1.1" xmlns="http://www.w3.org/2000/svg" xmlns:xlink="http://www.w3.org/1999/xlink" x="0px" y="0px"
	 viewBox="0 0 100 100" style="enable-background:new 0 0 100 100;" xml:space="preserve">
<style type="text/css">
	.st0{fill:#2B2B2B;}
	.st1{fill:#FFFFFF;}
	.st2{fill:#FCFCFC;}
</style>
<g id="Ebene_1">
	<rect class="st0" width="100" height="100"/>
</g>
<g id="Ebene_2">
	<g>
		<circle class="st1" cx="50.1" cy="25.6" r="7.4"/>
		<g>
			<path class="st1" d="M75.9,51h-8.5l0,0H35.3l0,0H24.8c-2.6,0-4.8,1.6-4.8,4.2v10.8c0,2.6,2.3,3.9,4.8,3.9H26v7.8
				c0,0.7,0.5,1.2,1.2,1.2H35c0.7,0,1-0.4,1-1.1V70h29v8c0,0.7,0.2,1,0.9,1h7.2c0.7,0,0.8-0.5,0.8-1.3V70h1.9c2.6,0,5.1-1.4,5.1-3.9
				V55.2C81,52.6,78.5,51,75.9,51z"/>
			<path class="st1" d="M37.8,49h24.6l0.9-7.1c0.4-3.4-1.9-6.2-5.4-6.6c-0.2,0-0.6-0.3-0.8-0.3H43c-3.5,0-6.3,2.8-6.3,6.2
				c0,0.2,0,0.4,0,0.7L37.8,49z"/>
		</g>
	</g>
</g>
</svg>
